<mxfile host="app.diagrams.net" modified="2023-05-07T04:50:09.533Z" agent="Mozilla/5.0 (Windows NT 10.0; Win64; x64) AppleWebKit/537.36 (KHTML, like Gecko) Chrome/112.0.0.0 Safari/537.36" etag="9k_5ozefo7BHfIDWfu_6" version="21.2.9" type="device">
  <diagram name="Trang-1" id="QxvBmrBvS_mBMWIXnv3l">
    <mxGraphModel dx="1050" dy="581" grid="0" gridSize="10" guides="1" tooltips="1" connect="1" arrows="1" fold="1" page="1" pageScale="1" pageWidth="827" pageHeight="1169" math="0" shadow="0">
      <root>
        <mxCell id="0" />
        <mxCell id="1" parent="0" />
        <mxCell id="9MOcIFeY1pFBm1jWxQmg-2" value="" style="rounded=0;whiteSpace=wrap;html=1;" parent="1" vertex="1">
          <mxGeometry x="94" y="97" width="600" height="437" as="geometry" />
        </mxCell>
        <mxCell id="9MOcIFeY1pFBm1jWxQmg-4" value="" style="rounded=0;whiteSpace=wrap;html=1;dashed=1;dashPattern=1 1;strokeColor=#3399FF;" parent="1" vertex="1">
          <mxGeometry x="104" y="137" width="580" height="390" as="geometry" />
        </mxCell>
        <mxCell id="XRFB1vrl8tOcv41Xk5D3-6" value="&lt;font style=&quot;font-size: 15px;&quot;&gt;Availability Zone A&lt;/font&gt;" style="endArrow=none;html=1;rounded=0;dashed=1;endSize=6;targetPerimeterSpacing=0;strokeColor=#3399FF;fontColor=#66B2FF;" parent="1" edge="1">
          <mxGeometry relative="1" as="geometry">
            <mxPoint x="174" y="166.75" as="sourcePoint" />
            <mxPoint x="364" y="166.75" as="targetPoint" />
          </mxGeometry>
        </mxCell>
        <mxCell id="XRFB1vrl8tOcv41Xk5D3-8" value="&lt;font style=&quot;font-size: 14px;&quot;&gt;AWS Cloud&lt;/font&gt;" style="rounded=0;whiteSpace=wrap;html=1;align=center;fillColor=#000000;fontColor=#FFFFFF;" parent="1" vertex="1">
          <mxGeometry x="94" y="97" width="80" height="20" as="geometry" />
        </mxCell>
        <mxCell id="XRFB1vrl8tOcv41Xk5D3-9" value="Region" style="rounded=0;whiteSpace=wrap;html=1;align=center;fillColor=#3399FF;strokeColor=#6c8ebf;fontColor=#FFFFFF;" parent="1" vertex="1">
          <mxGeometry x="104" y="137" width="50" height="20" as="geometry" />
        </mxCell>
        <mxCell id="XRFB1vrl8tOcv41Xk5D3-10" value="&lt;font style=&quot;font-size: 15px;&quot;&gt;Availability Zone B&lt;/font&gt;" style="endArrow=none;html=1;rounded=0;dashed=1;strokeColor=#3399FF;fontColor=#66B2FF;" parent="1" edge="1">
          <mxGeometry relative="1" as="geometry">
            <mxPoint x="454" y="167" as="sourcePoint" />
            <mxPoint x="644" y="167" as="targetPoint" />
          </mxGeometry>
        </mxCell>
        <mxCell id="XRFB1vrl8tOcv41Xk5D3-11" value="" style="endArrow=none;html=1;rounded=0;dashed=1;strokeColor=#3399FF;" parent="1" edge="1">
          <mxGeometry relative="1" as="geometry">
            <mxPoint x="454" y="515" as="sourcePoint" />
            <mxPoint x="644" y="515" as="targetPoint" />
          </mxGeometry>
        </mxCell>
        <mxCell id="XRFB1vrl8tOcv41Xk5D3-12" value="" style="endArrow=none;html=1;rounded=0;dashed=1;strokeColor=#3399FF;" parent="1" edge="1">
          <mxGeometry relative="1" as="geometry">
            <mxPoint x="174" y="515" as="sourcePoint" />
            <mxPoint x="364" y="515" as="targetPoint" />
          </mxGeometry>
        </mxCell>
        <mxCell id="XRFB1vrl8tOcv41Xk5D3-13" value="" style="rounded=0;whiteSpace=wrap;html=1;fontColor=none;noLabel=1;strokeColor=#00CC00;" parent="1" vertex="1">
          <mxGeometry x="124" y="177" width="540" height="331" as="geometry" />
        </mxCell>
        <mxCell id="XRFB1vrl8tOcv41Xk5D3-21" value="" style="endArrow=none;html=1;rounded=0;dashed=1;endSize=6;targetPerimeterSpacing=0;strokeColor=#3399FF;" parent="1" edge="1">
          <mxGeometry relative="1" as="geometry">
            <mxPoint x="174" y="166.75" as="sourcePoint" />
            <mxPoint x="174" y="514" as="targetPoint" />
          </mxGeometry>
        </mxCell>
        <mxCell id="XRFB1vrl8tOcv41Xk5D3-22" value="" style="endArrow=none;html=1;rounded=0;dashed=1;endSize=6;targetPerimeterSpacing=0;strokeColor=#3399FF;" parent="1" edge="1">
          <mxGeometry relative="1" as="geometry">
            <mxPoint x="364" y="166.75" as="sourcePoint" />
            <mxPoint x="364" y="515" as="targetPoint" />
          </mxGeometry>
        </mxCell>
        <mxCell id="XRFB1vrl8tOcv41Xk5D3-23" value="" style="endArrow=none;html=1;rounded=0;dashed=1;endSize=6;targetPerimeterSpacing=0;strokeColor=#3399FF;" parent="1" edge="1">
          <mxGeometry relative="1" as="geometry">
            <mxPoint x="454" y="167" as="sourcePoint" />
            <mxPoint x="454" y="516" as="targetPoint" />
          </mxGeometry>
        </mxCell>
        <mxCell id="XRFB1vrl8tOcv41Xk5D3-24" value="" style="endArrow=none;html=1;rounded=0;dashed=1;endSize=6;targetPerimeterSpacing=0;strokeColor=#3399FF;" parent="1" edge="1">
          <mxGeometry relative="1" as="geometry">
            <mxPoint x="644" y="167" as="sourcePoint" />
            <mxPoint x="644" y="516" as="targetPoint" />
          </mxGeometry>
        </mxCell>
        <mxCell id="XRFB1vrl8tOcv41Xk5D3-27" value="" style="sketch=0;outlineConnect=0;fontColor=#232F3E;gradientColor=none;fillColor=#B266FF;strokeColor=none;dashed=0;verticalLabelPosition=bottom;verticalAlign=top;align=center;html=1;fontSize=12;fontStyle=0;aspect=fixed;pointerEvents=1;shape=mxgraph.aws4.internet_gateway;" parent="1" vertex="1">
          <mxGeometry x="388" y="157" width="40" height="40" as="geometry" />
        </mxCell>
        <mxCell id="XRFB1vrl8tOcv41Xk5D3-28" value="&lt;font style=&quot;font-size: 15px;&quot;&gt;Internet&lt;/font&gt;" style="sketch=0;outlineConnect=0;fontColor=#232F3E;gradientColor=none;strokeColor=#232F3E;fillColor=#ffffff;dashed=0;verticalLabelPosition=bottom;verticalAlign=top;align=center;html=1;fontSize=12;fontStyle=0;aspect=fixed;shape=mxgraph.aws4.resourceIcon;resIcon=mxgraph.aws4.internet_alt2;" parent="1" vertex="1">
          <mxGeometry x="706" y="97" width="50" height="50" as="geometry" />
        </mxCell>
        <mxCell id="XRFB1vrl8tOcv41Xk5D3-31" value="" style="edgeStyle=orthogonalEdgeStyle;endArrow=none;html=1;rounded=0;opacity=40;startArrow=classic;startFill=1;" parent="1" source="XRFB1vrl8tOcv41Xk5D3-27" edge="1">
          <mxGeometry width="50" height="100" relative="1" as="geometry">
            <mxPoint x="384" y="327" as="sourcePoint" />
            <mxPoint x="711" y="117" as="targetPoint" />
            <Array as="points">
              <mxPoint x="408" y="117" />
            </Array>
          </mxGeometry>
        </mxCell>
        <mxCell id="XRFB1vrl8tOcv41Xk5D3-33" value="&lt;font color=&quot;#00cc00&quot; style=&quot;font-size: 14px;&quot;&gt;VPC: 10.0.0.0/16&lt;/font&gt;" style="text;html=1;strokeColor=none;fillColor=none;align=center;verticalAlign=middle;whiteSpace=wrap;rounded=0;" parent="1" vertex="1">
          <mxGeometry x="174" y="177" width="120" height="30" as="geometry" />
        </mxCell>
        <mxCell id="XRFB1vrl8tOcv41Xk5D3-34" value="" style="rounded=0;whiteSpace=wrap;html=1;fillColor=#D5E8D4;strokeColor=#82b366;" parent="1" vertex="1">
          <mxGeometry x="184" y="207" width="170" height="133" as="geometry" />
        </mxCell>
        <mxCell id="XRFB1vrl8tOcv41Xk5D3-35" value="" style="rounded=0;whiteSpace=wrap;html=1;fillColor=#d5e8d4;strokeColor=#82b366;" parent="1" vertex="1">
          <mxGeometry x="464" y="207" width="170" height="131" as="geometry" />
        </mxCell>
        <mxCell id="XRFB1vrl8tOcv41Xk5D3-36" value="&lt;font color=&quot;#00cc00&quot; style=&quot;font-size: 14px;&quot;&gt;Pubic subnet:&lt;br&gt;10.0.0.0/24&lt;/font&gt;" style="text;html=1;strokeColor=none;fillColor=none;align=left;verticalAlign=middle;whiteSpace=wrap;rounded=0;" parent="1" vertex="1">
          <mxGeometry x="224" y="207" width="110" height="40" as="geometry" />
        </mxCell>
        <mxCell id="XRFB1vrl8tOcv41Xk5D3-43" value="&lt;font color=&quot;#00cc00&quot; style=&quot;font-size: 14px;&quot;&gt;Private subnet:&lt;br&gt;10.0.2.0/24&lt;/font&gt;" style="text;html=1;strokeColor=none;fillColor=none;align=left;verticalAlign=middle;whiteSpace=wrap;rounded=0;" parent="1" vertex="1">
          <mxGeometry x="504" y="207" width="110" height="40" as="geometry" />
        </mxCell>
        <mxCell id="XRFB1vrl8tOcv41Xk5D3-45" value="" style="shape=image;verticalLabelPosition=bottom;labelBackgroundColor=default;verticalAlign=top;aspect=fixed;imageAspect=0;image=data:image/png,iVBORw0KGgoAAAANSUhEUgAAACcAAAAtCAYAAAAtOHJTAAAAAXNSR0IArs4c6QAAAARnQU1BAACxjwv8YQUAAAAJcEhZcwAADsMAAA7DAcdvqGQAAAPcSURBVFhH7ZhfTFNXHMe/pZSWFtqCQlf5J8HhQNb4X8PqHJrpFo3GzPiymT0s+mT0xRmfNl9MfOPBZSbGRBPlQTQONWHRGc2SRedfrKISwSo6oVShUIqlQHv9neM1eymXew/HhEQ+Nyf0nHO599vf+f1+53dq+v1qvdLc1oSpiOnXCz8rDS1H1e7UIkP9OyWZFifKxyXOZDKBXTKQEq2WDAtWVqzG6jnfoiCnEGPJMdztuoXmtrN43v9Mvcs4k7acz7sQv3x9AFsXbcPQSAxXOi7ixourqPlkPvZ/U48N1d/BnuVQ7zaG+autX+y7H7qrdo0xz+PDj4u301ICjYET+Ku9Ga2hANrCDxDouo2R5AhWzVkLq9mKzkiQ940gbLmcrFxuFUVJ4VSgAf92/oPQYBcGE1EMDPcj2NeBcw9O42HPfSwv82Nu4Tz1P/UjLK7EXUb+5UHLy5vcWiPJhDrzP9HEABrvncDwaByf0zLbLNnqjD6ExZXllWNwOMotlEgj7D3hwRBZtBtOmwsuq1sd1YewOE+OF0klyZdRC4WuN6NDsGXaKDDs6qg+hMVlmi08p6XI5yZCURR6EV0mY68TFicnzWqjOwl7nUXwl9eh1D2b933eBXDZ3HgUbsXroVd8bDzYvY6sHJ5iIvE+PvZ38BIF0y0kU2O8nw7dlmNClpQsR3l+BSy0pMHedgS67yCWiPG+Vgv2dvCIjo++IZEO1JZ9iarCGphNZvXp6dFtuWqecLfx5HqZdgFRmAV3rdiDe90tOH77CBJj40e6IZ9LpVLoj0d4shVtPbFuit64+kRthAMiHRX5n2KL73usqVyHGfYCdVQcaeLWV23CTv8eLCv144eFP2EXfa4sqFJnxZAirthVykU9ft2GQ9fqcfj6QeTZZ8BHW5Y5Q9vptZAizp2dj1xrLrqi/+FJXztPL3HyKzs5v2kSr5Ai7nnkKfqpEllaUgv/7DpsrN6MIlcxr05StMWJIkUc21+bWk/SlpaJvXX7sHbuepx/eIYnWj3b23hIEcc2d1a3naa6rpOseKn9TyrRm3jamQxSxDFYlRse6qGljCAcCyE6PKDOiCNN3IdAqjgWoU9oz301QSGgF6nieknUH62NfP+VgSFxLBpnOgp40k3XPLleZNM5IY/yXrp51oqcJXBY9B0VdVclVZ4a7KjdjcqZn9HBRbs014JVw4V0MDpy/Tc0tBxLezB6j25x2RY7ZjmL4bS61JHJ8TL6gnyzh5fw42Ho5wj+G4is+pw0sfyohSGfYw9j31RKm0AY4+PJc7KZFidKxjvXTE3JNr2sokyLEwN4Cy4NGYFNvr9bAAAAAElFTkSuQmCC;" parent="1" vertex="1">
          <mxGeometry x="184" y="207" width="34.67" height="40" as="geometry" />
        </mxCell>
        <mxCell id="XRFB1vrl8tOcv41Xk5D3-46" value="" style="shape=image;verticalLabelPosition=bottom;labelBackgroundColor=default;verticalAlign=top;aspect=fixed;imageAspect=0;image=data:image/png,iVBORw0KGgoAAAANSUhEUgAAACcAAAAtCAYAAAAtOHJTAAAAAXNSR0IArs4c6QAAAARnQU1BAACxjwv8YQUAAAAJcEhZcwAADsMAAA7DAcdvqGQAAAPcSURBVFhH7ZhfTFNXHMe/pZSWFtqCQlf5J8HhQNb4X8PqHJrpFo3GzPiymT0s+mT0xRmfNl9MfOPBZSbGRBPlQTQONWHRGc2SRedfrKISwSo6oVShUIqlQHv9neM1eymXew/HhEQ+Nyf0nHO599vf+f1+53dq+v1qvdLc1oSpiOnXCz8rDS1H1e7UIkP9OyWZFifKxyXOZDKBXTKQEq2WDAtWVqzG6jnfoiCnEGPJMdztuoXmtrN43v9Mvcs4k7acz7sQv3x9AFsXbcPQSAxXOi7ixourqPlkPvZ/U48N1d/BnuVQ7zaG+autX+y7H7qrdo0xz+PDj4u301ICjYET+Ku9Ga2hANrCDxDouo2R5AhWzVkLq9mKzkiQ940gbLmcrFxuFUVJ4VSgAf92/oPQYBcGE1EMDPcj2NeBcw9O42HPfSwv82Nu4Tz1P/UjLK7EXUb+5UHLy5vcWiPJhDrzP9HEABrvncDwaByf0zLbLNnqjD6ExZXllWNwOMotlEgj7D3hwRBZtBtOmwsuq1sd1YewOE+OF0klyZdRC4WuN6NDsGXaKDDs6qg+hMVlmi08p6XI5yZCURR6EV0mY68TFicnzWqjOwl7nUXwl9eh1D2b933eBXDZ3HgUbsXroVd8bDzYvY6sHJ5iIvE+PvZ38BIF0y0kU2O8nw7dlmNClpQsR3l+BSy0pMHedgS67yCWiPG+Vgv2dvCIjo++IZEO1JZ9iarCGphNZvXp6dFtuWqecLfx5HqZdgFRmAV3rdiDe90tOH77CBJj40e6IZ9LpVLoj0d4shVtPbFuit64+kRthAMiHRX5n2KL73usqVyHGfYCdVQcaeLWV23CTv8eLCv144eFP2EXfa4sqFJnxZAirthVykU9ft2GQ9fqcfj6QeTZZ8BHW5Y5Q9vptZAizp2dj1xrLrqi/+FJXztPL3HyKzs5v2kSr5Ai7nnkKfqpEllaUgv/7DpsrN6MIlcxr05StMWJIkUc21+bWk/SlpaJvXX7sHbuepx/eIYnWj3b23hIEcc2d1a3naa6rpOseKn9TyrRm3jamQxSxDFYlRse6qGljCAcCyE6PKDOiCNN3IdAqjgWoU9oz301QSGgF6nieknUH62NfP+VgSFxLBpnOgp40k3XPLleZNM5IY/yXrp51oqcJXBY9B0VdVclVZ4a7KjdjcqZn9HBRbs014JVw4V0MDpy/Tc0tBxLezB6j25x2RY7ZjmL4bS61JHJ8TL6gnyzh5fw42Ho5wj+G4is+pw0sfyohSGfYw9j31RKm0AY4+PJc7KZFidKxjvXTE3JNr2sokyLEwN4Cy4NGYFNvr9bAAAAAElFTkSuQmCC;" parent="1" vertex="1">
          <mxGeometry x="464" y="207" width="34.67" height="40" as="geometry" />
        </mxCell>
        <mxCell id="XRFB1vrl8tOcv41Xk5D3-48" value="" style="shape=image;verticalLabelPosition=bottom;labelBackgroundColor=default;verticalAlign=top;aspect=fixed;imageAspect=0;image=data:image/png,iVBORw0KGgoAAAANSUhEUgAAACYAAAAnCAYAAABjYToLAAAAAXNSR0IArs4c6QAAAARnQU1BAACxjwv8YQUAAAAJcEhZcwAADsMAAA7DAcdvqGQAAAUESURBVFhH7ZZZTJxVGIbfmWFgWIZ933cpqxVqK5UqtVHSNlWUhlZTY0xcEi+MvdLEC73SxESjURs3bpqm2qQ1hlYNia0hBAgVCQJhXwcYhqGzD7MPfufkH7ZZYJpGueCZ/Bn4t3nPt7zfEZV8kryGPYio8OPEPSlMLHzvOfaFBcu+sGDZFxYse1ZY0AYrFokRI4tFQUIxHs2uRao8HRa7GUOqAfQr/8aScRE2p1W4+/4JSlhYiAxNFefRUHIGbrcbs7ppKHSziJBGoDLtESRFJaNzph3X+i9jSjMhPHV/7FpYXHg8LlS/hsMUpTsTbeie64DWooXFYYZEFILY8DgkRSbjTFkTEiOT0HL3ErpnO+BecwtvCA5J/ImID4S//SKjSDU/fAGlKRVoHbqO30ZbodDPwmDVkzALVkmcZnUFi8YFjKtHkBdfQAs4CpVJCaVhQXhLcOxKWG3OMRzLP47O2Xa0jd2CwaYXrmxljaKjt+kwrZlEaWol0qMzsWiYR05cPg6m1/D6NNqMcK25hCf8s6OwUEkoGiuaeUp+H73Jo7ATRpsBIeIQHMl+HKcOPIdDWY/hQHI5ni4+hRR5Ko+2iQQGYkdh+QlFOJr7JAaUfehRdJLAnVe7Rp8VsxqFicXkR2LcGPgRt4ZvYE43w6MvD5VTVCdgDdC9OworT6nkNfMPCWMv8wUr9saKczhd0giH2w61aZlqbxUTK2PoVnRgZHkIyyYV5vUK3kQFiUW89pi1+GNHg02m0FPzwkwF7ovMmGy8ceRt1GQeRlSYHG/VXsTJkmchlUh52hdIjCcyVqcFg6p+RFLE8imaUioTf/gVlktReqfuPbxS8zpsLitFQSVc2UpJchnZRArap27jUtdn5GtzyI7N5SJ9MaYexjCZMfPDb5uu4HTp84gIjRSubuAzlTlxeXj10JuIj0jE9YGrvBOVFPbt9VWXdxxnK1/itSSXRSOXuq8qrRpZcbk8Ymwx2zuYpXqGurafSsPpcuCpogbeKNPaSTjofw9ewlgXNle9TKIS8PPgT+giI9VYVuByexf9C5Xn+SLGV0apywwQiUTQWTRkG2vcIub1c5jVTgl3b8DqT21WYfLeOFwuJy2wnsaYjQRP8cZheKUyPTqDVp6HwaV+9C328pewH/IFG0X9yl581/Mlvun+Aj/0fI2vOj/lXai3arkx+4PZj96qw+3JNm4vRYkPbUm/lzA2lMPpB3X00G6GMfMjlVHJO2zzsWpfFe4IDJsearKWqLBoRMtihLM+hEWSatZFZntgA/QQIpZCJpXREb5+sG4TU1p3A0sdG2cSkYR3qwcvYUargacgatNN/rC77Ggsb0bL2Wu4+mLr+vHRyc95tzrcG8UcCOZtbFxtzpDX7iKD5tvFJ96nlh7Elb4WXmP+yIrNQZo8AxKxRDizgdluwpx2hkpCK5zxDSubd+s/xL1VNS73fk87Fg0/79WVbLfAwsqGttPt5G7vb+vCinbJsIgFg8LrWDYtBRw5DOYAzM/YwG+f/gMj6qH1RvO5H2M71HNkGXUk7q/5bnRM/8l3CWaHyW+HBgMTlEET40RhA8pSq8gnb+LXkV94I3jwKUxEnzjysYPp1agvfAb58YXcMB8UbHEsM8zn7pBd3FV0cVEeD2ME3MGyJkigAR0dFsPriAl+EDABrEyY1bDaYiK3s+ut9X+N3yH+f7MvLFj2hQXLvrDgAP4F1mdNc9jYuVMAAAAASUVORK5CYII=;" parent="1" vertex="1">
          <mxGeometry x="126" y="177" width="38.97" height="40" as="geometry" />
        </mxCell>
        <mxCell id="XRFB1vrl8tOcv41Xk5D3-54" value="" style="rounded=0;whiteSpace=wrap;html=1;fillColor=#d5e8d4;strokeColor=#FF3333;" parent="1" vertex="1">
          <mxGeometry x="484" y="252" width="130" height="78" as="geometry" />
        </mxCell>
        <mxCell id="XRFB1vrl8tOcv41Xk5D3-59" value="&lt;font style=&quot;font-size: 14px;&quot; color=&quot;#ff3333&quot;&gt;Security Group&lt;/font&gt;" style="text;html=1;strokeColor=none;fillColor=none;align=center;verticalAlign=middle;whiteSpace=wrap;rounded=0;" parent="1" vertex="1">
          <mxGeometry x="484" y="252" width="130" height="23" as="geometry" />
        </mxCell>
        <mxCell id="XRFB1vrl8tOcv41Xk5D3-61" value="" style="shape=image;verticalLabelPosition=bottom;labelBackgroundColor=default;verticalAlign=top;aspect=fixed;imageAspect=0;image=data:image/png,iVBORw0KGgoAAAANSUhEUgAAAEAAAABCCAYAAADnodDVAAAAAXNSR0IArs4c6QAAAARnQU1BAACxjwv8YQUAAAAJcEhZcwAADsMAAA7DAcdvqGQAABbeSURBVHhe5Vppc5zHce7dBRbH4iTAmwTvG6REipR4SDwkkdRhpRyXK6XYFcflcimVf6E/kO/5kFSOD0nkKOVK4lLJkiVSJHhLJEWK9yGe4AUSN7DA7gJ5nu6e930XAGXJuSpO893pY3qunpmengFTf/HXnePj4xJDKkoMQKYm8GX5pjBZHAmTgJq+USfJT9BNMErFSQwTZKlkBWW0Y0Dq1T86P14aN4mmVDSCifKRXLElxk6h4yIlAhuVNTxVxyLZJF1NE3J+mhjDlHlGAuK8UEQJZywrZIikx8ZExsfGhcsASMZIUwaeK4N5Y6RdJ+RpuQk6cVnPAw2Rl42x6qnOFLJJutQDHclZJ3mXh7IT2iW2svhpvusGXnVhADUDCP1ZooWTPBGKxDLHVHMmIQv5BKMty4WOVS/ARNkkXU39Z6isP0ypZCQgzgtVKYT6EnTaGsXPkSeJCo0n+l83ApNIzk8TY5giL64zzisr6/mWNe4rQIGZhjxBPmWRUFFZo46tTk0SMua7jEL7YpnjuMOAhGxqXU2dIOZn2BOThXKJvFikCkbilyYzqYCyJtMsS5Q3FU0Co9iq0KRcNqFuy3KZ46mMQDy1rqb6BVzWH0ff1giRD/j/agTfAqbwf9cIgQy8C8mGcom8WEQDTFD47UZQiomiskYdWxWalMtcpIR9SFzo+GlGmAobQhLJ+WliTEBOKuF5oUhq5/fPoE0GCiZQAoFCHCtYXjqTkqpsWrLZlKQ1sPC8CFIyWhyXkVHGBMZbHa7j9FRBi2W50PE3BUvpdEqqq1KSqSDv7WhWREixJJJHXwL/1GCJBmCHQU5QCAOwBpubKmTV8hqZOyurfAxGFzD4W52jcuFqXgaHtELNszpcP5KBcJESgQ0NOn6aEepq07JmWVZmz6hQGcGymaQ0AHrYXZKzlwsyNPLNRjADoIDxUyigULYyJSuW1sgfvj5NVi6rkUJhXJ70FGUUOMBwfkzOXszLZ0f75UkvzB/V9TQjELmMQvtimeOpjNDSlJHd22pl7Yoq5QnMqsbqbKzHrsZ4rt4uyvsfDcnXd9EXLeb1AMV1YjXbZsBPP8MGLkM+9Wn1WTMqYfVKaWmuwCyX5NjJAek43i+HTvSDHpSrN/IyPML4My7PJNqrEQo+wWUU2hfLTAHIeYLTeczqlRsFOX5mRE7wd3ZELlwrYEJEZrZk0MeMzGzNSH0dhhdXrGWVTbQbh8Kaw8+wQYKGEbjMH3YVpH+wJI0NFTKEWacB9h/ulw4Y4dL1vOQhK2vUsbWpSbks0Rn/YpkxiQ4DQHO1nb86KvuODsm+Y0MwQF66+0pYqQI8Jg+6xnS+daK1Tk2McRTqLA+FHccFCKSNH8HsXrw6LAeP9UltTUp2b2+QNfALQ8MlGYBRmK/bSdWtjDOKrU1NymXeGRXaF8sCinTs8sOVxokogV40t0KeX2vbYd+xvNzoxFIgJOp4mhF0BZheQkG/wMdAva4nRdl/qE8+OdgrrdgK33+tWTY9m1M/YfpeSItrEhjFUVsRCkYgTQBhHxIXOk4aIQWNHCZh7bIqeXlLrW7Rz44Py+FTwzJAJxwgqoOfJsY4ggHIJDqWwHGBGOhgHj0uykf7e+XDfb3SUJ+Rt3Y3y4Z1Oamp/s8YIeQTjLYsFzoORsjVpKWdg99cI/W5tBz8fFg6Tualb4BL0MEqSNTBTxNjAPQSDomOJTALJDtHRP5xd1F+c6BHPu3ohbPJyOs7G2V9e61uDdONC5Q16jhqK0Ll7SgRWFNWzG3NNtqXZ3XwDfD6R04OyyEMvhunT1m9gJgPdfDTRBnzAZ6nWZ4RFPTDb3ikJI+x/Pv6ilKCM+Q+JM/tQEdIj7ttU53MmZmNnI8nXo0mgVFc1tlIFvIJRltWEI5LaxPa2lAjTQ0ZOXY6j8EP69Zkn0qlcenrH1OnWCjYatCiWq/XQdIrzixY/mfvmhS9ZscVEmd3kEF5YGhMbt8dkfuPRqVYVJF6fa6GAvwOG799dxQzUdS2QhVRJVqdJoFRHLU1EVkGifDhl8IKSOO4q5BrtwpyGIN/hKDHYhnTL+Hof/RkTG52FrXPQR5X5wRQavubJxEJ8qynkBLLI2F6hisq0xoKM2pUb8/Ru34FQlIei7majA5+cJhHoVXEsqy7oiKt/mI6Ot7SXKlBSwXqq0CIzapovHx+XI/Wnv4S/EwJXj7ufGiLXBblWpozGu4+7uGyDzoeJlezXsYLOLoZkxG8HkOsyPntb34RR4IqJKF5gMTsJDBnwXiCy6CYpktFZyLbQFaXy8iKJdWyEpFk67QK/CplGiK5KhigEidHRYax2LjF7jAsjWAGKErnwyJmeVRu3i3YTIa2tH7rW2xowwqBpo5jBceGkDA/MkAkYy4JE5GIC8T4aUYIPMnp0ytlz45G2fRMHSIzC5wedhXl/sOCDpariFuH+5ErhKuitjaD4zWjUSeN9PXtAvb5kBz6YqgsxNaWQnuOfxcjpLa/AQOocwgKzCRNwkQkQgGTGQ5G4LLjNiBwJlldDgPZvqVBfvSDFjilknz+5aDcgn94iJnl7OqtEYYvYOmzEpbnFqvB/p7WWAEDVMii+VlZt7JGt8f7H/bJ8S+H9f5RCV3Wz2CoQF+kVVj7Uxkhkk3ARJm2Ze+8q2tWZa4AbDpIgmiSDNdR7F8egW1zq2TVslqZhsCob6CknWzGIHZta5Bli6rl1Nkh+fhAn1y8lpd7D2w5M56nEYoYXAmDYJlhLH+W74JTvf+oKL0IaxlsLZpfJf2QX7s5KiPQmz8nK9/bVa/nPwdfgiHp+NQQ7FkYKCEarMsm4MyCpe+8Wz5+VwA2HSRB5DJWVl2VloXzqmTLpnrZsbURV+Va1eAsD8B50Sk+v75OFi+oZgEESWnIMvDg+IGm4XLwD4FugoPkJWsGnOQCDHDV0mp5ZlWNrFhcrfk0yMVrI3DA48ivlFe25WCYSlk0r1JvgDTCIAzLFUj4tkZIvfT6CXeCYFQYJYqsEAkT2dtApaxdncMA62Vhm83Ozduj8uX5QTl3cUijsTmzsvLTt2fIlufqpBOzPoyTQVI260/guYv+eMIfVxL3O43BLcAojzJ2izKGuZ+fHZb3ftWjXn86nOkzq2tkcVsWBshqBHr3flGOIAw+d2VEuhEHEKYyQjxO46MVoBBlRomC6dLLp6S1tVJ2bGmUPTubdclzwAeO9MmJ0/1y4/YILkY8AgWzViHrVtXqzDNY4iWKtzjOFI8+ng48z7lVmhszuqLSOLq4lHth0Bt3RuUCBvMAt08+xvQgsDl3mY8tYzDmuJ4Qd+4XcN6X1CcswEpYAoPQcDQ4r8ba6zBwQqCjcXIFvHY8WgEKUWaUKGJFXNYvbW6SPbuadeY6jvbKF2cGNArjHratRGXRFfAnP5wh8+dm5e//uUsuXhnW87kKA+Xgc9i/GRiUjo/PbeoT4NS4x7lahuAPeEqsxBH61u5GDKqoK4AO1Lplxy4NxxPm2TU1suP5nB6tH+wfkE+PDKIu6lnfI5gwToTCxkceBFipOFHEJcpXoRc3N6jqB795LPsO9Ujnfe5LzDqF+hnWHzlgLndeXR89LsidzlG5cj0vZ84PyalzQ3L89IA+rJw6h+0DIzGPT2s06pCe/bbtrFdaaVQ3J46r6hauvweOD8rHHQMwqsjel3KyfjV8j49J+xYg0MCk/DocCwNWyhMarR6z1r4qJzOmZ+XwCcw8lnxfP+NvVwwF9FNGO87I75k1tfqSxCszIzS2x/tEsYgZx0piTFDEzPO4I3AZc1/Pm12pxyDjAq1Ss00n0Owy+9AN33Dk5JB0nBiS+Sj3/LoafTgNY3qaETJtS3/+buCjpTJhmXCpzpxZJZs3NmoY+sHHT+TuvVHTUYCeFkHimJ57w7o6PR7p3fmYOm92lbQgEmxAHvc1fQDPc+pSZyb8ywKcLO3La2Tzhpy8+HwdnB3v+hlEg6PylfuAqK0EIsHtw7iifXm1+hM6RA2nNdsUJ26H1LbdBzD+5OMiFCYoMUhZtrhW3v7BTPXSf/m3nXLjVp6Z+hm4EbzsnFlVOAVmykZEgddv5nW/cv9zyXK/cwYLWAHc5yzCp/aU+gTMPtqohqE5MYwTeIc4qadAN5wefEBoKzTuNPu+EKfCO3/crL7gr97rkctf40LgfQo4aYR0qTQcLwmA7WX/mUDG0ImhoZL+OBucMauDeqoFsOVoZQ3zetrVXYCv6JV//GWX/Hpfj1y4zKtrQcNibhEec7XVqA8G4tMaQ+WvLg7Lh/t75V8+6JYDx/r12IwaUuRtTZCl0+O4Iqc1luC2sksZs4Ke4eR2yMxf8vN3McfGJSyT3A7UZ2e5DZYtqZUROp47I7i4oGOqhiQqarOjx2B7nZ7hB4/2yemvBuUOts2N23m5gojwAo7Fc5eG5Sv86BDPnB+Ws6DPwUAXruQxc3l4/lHs44wsX8xYY0zzeMzG7cUrgQZkfLBzC7bd0io41Twc7LCGyrG6phHmGDGuqtgiCctMlPEZ/MKlQXnwcFQ2b2qQHduapBFnuOnhFxUNs2Pt8JjiEqZoECcBX5Vvd47I9RsY5HUO1n6X4f1v3BrRPJ79DK7oFGtqLOpU8Kbi9qwtbq8ZGPxLm3LyXHu1XMGyPwqHyO0WdE1d0wiz75m2xXCCyppFnDAMCDJ6Wi5RLuuVy3KyenlOHVg/ApQnPQUvgsSLmhOsl+U4OmswgGwlozt70dWYQRs15XhP8pRgpJlBvF8lG9flNJLkaXAXQQ9XDJc15tuaQjnWvXRBVnZtrVMD8FT55a974TBH7FRJ1O1fLANObXv1cFkg9E1GoJNqwqxv2tCAYKhFlsAxnjk3IIeP9cpp4EeYOWjpRyf4sx/Nkp0vNunq6ceN8B5WT3cPLzkl6cURymXNvzLx2OOJUAnHx+O2BbPJoGsmrtOMEjkQ/sXpvX/r1tsk62f0N72lUp7FKfHC+loYKYsthnjg2IAcPYXZhyGoqF2PxmJ9Uy6MadsrMEC8BMoy44IkYxkjujUrc7Ln5RZZv7Ze/yZw/vKgnDjVL6cQGfIyNAdHHk8Bxg4nEOyw9CJcjPggwvCYTkpDY7gRPSHg/WmISmAa5cHDArYC4gwslSUodx7bhAZggNQKJ7d1Y51GiW2INLlqvrqUl88w+EtY/qPhhLbBWN+joRhtWVwBNEA4i4LQsULAgKQR2OhszPLG9Q2yEtthOs7wi1eG5F8/6NKIjyvgJ2/P0qX8d//0ALF9XubCKFxB3Dp297eQmKcMly63Bo9IGpQPrjzD5+Fm+OarTYg4C/Levz/Rq3L7ihr585/M0G3E2yfvCGdwcjBc5m3Quhn6asnTjJDa+vKh+FRIDFCpBB/AKjKeqApemoaYNSOLQYzJ5WvYpwhWyP/4hzNl9cpa+Yf3H8mh4706QJRSj80XIBqBq4lbkOc9//TGx1ZemFh3Q32FbIYPeG1Xk4bIv/jVEz0SF+Cs50vTJVyPbyNsZmygR170Z34O2LBCJAv5BKMz8xf+DJFgKEC5E46Tsx4gSTHO7+3jMxfid8z8KIxAg/LY5OPn6hU5fQPghYcBDiNJgg4aZQfgHzj7HDS3AFfHDKwmPoK0Iwx+Do6Qq4axwWUcnxY6j+vM09tzRahhE4MP2LqsSQKFfAK4rbs63Ad8RyNMlAEr5QkHs7ANN7m9rdgitWoUvhjzGOTy5onC5UqD0Th0alwRNEArnBvvEIwl6A94XH6CK/X1myOJB48oUZ4oHlyMrXualMssww0Q+YD/WiMw9J0/t1odJp/NmhD/12NZ8zrMAXM1MMzmDOjyx+B0VcAH9PTyWbykf3K/dmNEb5GM9RMNWLOWKE/0XY2Q2rrzYNkpEGUSAuH4aUYgy1nkso/e5lTFVgL3eV2uQpcyL0N8UeJNjQbgL8QGNAKXNwfPcJm+JLwxsl6tlG2hHRqO5bh1rD/aoKuYnjOKrcualMlSW2AA/sEz5IXKrABJG1hjI5Zla1aGsXQfPBq1ENOy4ckrZMXSnDpDxgV37uECkjCCgtfDI4+YYjWeEqYS3vhpQP0pHesSWJY+gn+M5Zb64sxQFO4y4aqbg6s3L0OdOEp/23/X0T+OIi6z1gg6fXE4S6ICV4W2edXy2qutCIObdJ9SzjpIr1tTJ3/wxnTkNWoQw/Fp8ThRfZ0xenvONn7c/zw5iEfh3Pi3PMp5ItBJWh+Q8PNq2Caf0ba/UC9v7W6CIWr93s/ccX0p3roxJ2+83KiGCOWZRPVFSP9/gCmUG8GS0CgHxNB24YIamTunWvcvO1KLiw4vPHtfaVGPf+7CgNy7P6oDZWGvJiQmC7yLSJR1zPPK+qO06TEw4vb4EhcovjK/satRn8PCX6UrMVlzZlYiPK5SY1gdLG+4rC2goKEobpSYhBcIvwBoK4fBMwrkquDgDx3rlv0dTxAOj6hTU0BhpeLEZIF3EQlrJ8gMx/0hkLaV8RgG2NfRKx2I/Bgy70VMwIcT/f8JCWDRuI4YR+0D/E3QGNPRxHkSKjGRy+nFn1vfKG/snY7QNisdR3rks4PdelMMz1reiuK4bELmdQcRCSsSZIbL+qM0Hd+4Rpt8jT7yeb861z07GrASajWkjnUDcjqBQ1vmA0JnTMbsiFXN8EPd3AobNzTK63sw8/Do+w4+kf343X84Yktfi3jhBFYqThT97kawyJF/pj94rF+OftEv03DEvobtsKG9Vh9GDbyQFrFyzihmW7EPCJ2xPGZHbIAqXGmXw9u/urMFS69SPvqkS/Z91oVTwQdvvVf4HzECjk1GoAdwUzx8YkBfgvbubJRFbfETX1RIi1g5ZxRHtlJZ6EzgLWGGCrLwtvNxGsyZXS2d9/IIfUfVKa5dXafBDm+AdEIB/ruMwIhxYVtW1q6qldWIMmcgcqRf6IQDnoUrNP92qMBKQt3K89MkMJLa/OK+KBTWlIelkr6XgPgs9ewzDfKnP54va1bX6/8KuXOX/yHJgwEA44PTZ/rl0wO4sHQXWJHneJ1GRFipOFFkeiRMRMKKBJlhvgO8/nKztK/OUahZ1ONbwtzZ9tehS1eH5W9+0SVncYeYakwh/sjMa/upPYsnFEJm4DUbZBrXuH4MuhOBDvEozm09w4H515wHD0bk1h37E5iC9V5hciemMAKwFUESRJNkdmfgQBkPaDyhMcW49CNy5J/F+LTGt0YO3t4QtZaovIKy+PfCtn1YgW6BhMLEDjNkbUIIy73PlyGFxCB4PDGG7+4paKe81zEGWJ0xT1q5ODFZ4F1EQmVethJXaf5dktflpE7I53B4j3jM/zvkYyuv0/SUfWHbp/okNpXCNy0d40mEykk6AaxUgg+gdRoRYdONEkWmR8JEJKxIkBku60+QhbpDnrImmzgm++sDwBCSgJlCGDkoFfDTxHnL8yqcN6w5CT7AJJnrJhJFUbsuImFFgsxwWX+CLNQd8pQ1meaFugEaB3jNkxtwFHUm8JY4b3lehfMxnjRgwCQZsFJxoihq10UkrEiQGf7uRogSPwbJeAFD5B07+n01QtqbNYkXMETesaPfRyP4ddiBEi8wqYGAJvDfxQiTMODbGyEQKgF8FyM4G/KUN6GHwt4ogdpeYlIDTDU/5i07yIxXScQ7AWxZMR8gniWHSDdKTBZ4F5GIZAqWp6WDSOmgR/A85f0ypEAlJ1XbSxgi75ip5se8ZSdkjr0KkE4AW1bMB7A6Yz7WjRKTBd5FJFTGJJGnpZUnkA5lCZ6HX7QCTO6NErRC4wyRd8yUupphvGVr4gyJRKOBYDlFMR8gMkIiT6k4MZnm4+ciElYkyAxraeUJpEPZwIv8B4WQxq5C2ovvAAAAAElFTkSuQmCC;" parent="1" vertex="1">
          <mxGeometry x="498.6700000000001" y="278" width="43.64" height="45" as="geometry" />
        </mxCell>
        <mxCell id="XRFB1vrl8tOcv41Xk5D3-64" value="&lt;font style=&quot;font-size: 14px;&quot;&gt;Internet&lt;br&gt;gateway&lt;/font&gt;" style="text;html=1;strokeColor=none;fillColor=none;align=center;verticalAlign=middle;whiteSpace=wrap;rounded=0;" parent="1" vertex="1">
          <mxGeometry x="378" y="197" width="60" height="30" as="geometry" />
        </mxCell>
        <mxCell id="XRFB1vrl8tOcv41Xk5D3-83" value="" style="rounded=0;whiteSpace=wrap;html=1;fillColor=#d5e8d4;strokeColor=#82b366;" parent="1" vertex="1">
          <mxGeometry x="184" y="357" width="170" height="131" as="geometry" />
        </mxCell>
        <mxCell id="XRFB1vrl8tOcv41Xk5D3-84" value="&lt;font color=&quot;#00cc00&quot; style=&quot;font-size: 14px;&quot;&gt;Private subnet:&lt;br&gt;10.0.1.0/24&lt;/font&gt;" style="text;html=1;strokeColor=none;fillColor=none;align=left;verticalAlign=middle;whiteSpace=wrap;rounded=0;" parent="1" vertex="1">
          <mxGeometry x="224" y="357" width="110" height="40" as="geometry" />
        </mxCell>
        <mxCell id="XRFB1vrl8tOcv41Xk5D3-85" value="" style="shape=image;verticalLabelPosition=bottom;labelBackgroundColor=default;verticalAlign=top;aspect=fixed;imageAspect=0;image=data:image/png,iVBORw0KGgoAAAANSUhEUgAAACcAAAAtCAYAAAAtOHJTAAAAAXNSR0IArs4c6QAAAARnQU1BAACxjwv8YQUAAAAJcEhZcwAADsMAAA7DAcdvqGQAAAPcSURBVFhH7ZhfTFNXHMe/pZSWFtqCQlf5J8HhQNb4X8PqHJrpFo3GzPiymT0s+mT0xRmfNl9MfOPBZSbGRBPlQTQONWHRGc2SRedfrKISwSo6oVShUIqlQHv9neM1eymXew/HhEQ+Nyf0nHO599vf+f1+53dq+v1qvdLc1oSpiOnXCz8rDS1H1e7UIkP9OyWZFifKxyXOZDKBXTKQEq2WDAtWVqzG6jnfoiCnEGPJMdztuoXmtrN43v9Mvcs4k7acz7sQv3x9AFsXbcPQSAxXOi7ixourqPlkPvZ/U48N1d/BnuVQ7zaG+autX+y7H7qrdo0xz+PDj4u301ICjYET+Ku9Ga2hANrCDxDouo2R5AhWzVkLq9mKzkiQ940gbLmcrFxuFUVJ4VSgAf92/oPQYBcGE1EMDPcj2NeBcw9O42HPfSwv82Nu4Tz1P/UjLK7EXUb+5UHLy5vcWiPJhDrzP9HEABrvncDwaByf0zLbLNnqjD6ExZXllWNwOMotlEgj7D3hwRBZtBtOmwsuq1sd1YewOE+OF0klyZdRC4WuN6NDsGXaKDDs6qg+hMVlmi08p6XI5yZCURR6EV0mY68TFicnzWqjOwl7nUXwl9eh1D2b933eBXDZ3HgUbsXroVd8bDzYvY6sHJ5iIvE+PvZ38BIF0y0kU2O8nw7dlmNClpQsR3l+BSy0pMHedgS67yCWiPG+Vgv2dvCIjo++IZEO1JZ9iarCGphNZvXp6dFtuWqecLfx5HqZdgFRmAV3rdiDe90tOH77CBJj40e6IZ9LpVLoj0d4shVtPbFuit64+kRthAMiHRX5n2KL73usqVyHGfYCdVQcaeLWV23CTv8eLCv144eFP2EXfa4sqFJnxZAirthVykU9ft2GQ9fqcfj6QeTZZ8BHW5Y5Q9vptZAizp2dj1xrLrqi/+FJXztPL3HyKzs5v2kSr5Ai7nnkKfqpEllaUgv/7DpsrN6MIlcxr05StMWJIkUc21+bWk/SlpaJvXX7sHbuepx/eIYnWj3b23hIEcc2d1a3naa6rpOseKn9TyrRm3jamQxSxDFYlRse6qGljCAcCyE6PKDOiCNN3IdAqjgWoU9oz301QSGgF6nieknUH62NfP+VgSFxLBpnOgp40k3XPLleZNM5IY/yXrp51oqcJXBY9B0VdVclVZ4a7KjdjcqZn9HBRbs014JVw4V0MDpy/Tc0tBxLezB6j25x2RY7ZjmL4bS61JHJ8TL6gnyzh5fw42Ho5wj+G4is+pw0sfyohSGfYw9j31RKm0AY4+PJc7KZFidKxjvXTE3JNr2sokyLEwN4Cy4NGYFNvr9bAAAAAElFTkSuQmCC;" parent="1" vertex="1">
          <mxGeometry x="184" y="357" width="34.67" height="40" as="geometry" />
        </mxCell>
        <mxCell id="XRFB1vrl8tOcv41Xk5D3-86" value="" style="rounded=0;whiteSpace=wrap;html=1;fillColor=#d5e8d4;strokeColor=#FF3333;" parent="1" vertex="1">
          <mxGeometry x="204" y="402" width="130" height="78" as="geometry" />
        </mxCell>
        <mxCell id="XRFB1vrl8tOcv41Xk5D3-87" value="&lt;font style=&quot;font-size: 14px;&quot; color=&quot;#ff3333&quot;&gt;Security Group&lt;/font&gt;" style="text;html=1;strokeColor=none;fillColor=none;align=center;verticalAlign=middle;whiteSpace=wrap;rounded=0;" parent="1" vertex="1">
          <mxGeometry x="204" y="402" width="130" height="23" as="geometry" />
        </mxCell>
        <mxCell id="d-93db96H7rgeAo_u0tM-161" style="rounded=0;orthogonalLoop=1;jettySize=auto;html=1;exitX=1;exitY=0.5;exitDx=0;exitDy=0;entryX=0;entryY=0.5;entryDx=0;entryDy=0;opacity=50;" edge="1" parent="1" source="XRFB1vrl8tOcv41Xk5D3-88" target="XRFB1vrl8tOcv41Xk5D3-61">
          <mxGeometry relative="1" as="geometry" />
        </mxCell>
        <mxCell id="XRFB1vrl8tOcv41Xk5D3-88" value="" style="shape=image;verticalLabelPosition=bottom;labelBackgroundColor=default;verticalAlign=top;aspect=fixed;imageAspect=0;image=data:image/png,iVBORw0KGgoAAAANSUhEUgAAAEAAAABCCAYAAADnodDVAAAAAXNSR0IArs4c6QAAAARnQU1BAACxjwv8YQUAAAAJcEhZcwAADsMAAA7DAcdvqGQAABbeSURBVHhe5Vppc5zHce7dBRbH4iTAmwTvG6REipR4SDwkkdRhpRyXK6XYFcflcimVf6E/kO/5kFSOD0nkKOVK4lLJkiVSJHhLJEWK9yGe4AUSN7DA7gJ5nu6e930XAGXJuSpO893pY3qunpmengFTf/HXnePj4xJDKkoMQKYm8GX5pjBZHAmTgJq+USfJT9BNMErFSQwTZKlkBWW0Y0Dq1T86P14aN4mmVDSCifKRXLElxk6h4yIlAhuVNTxVxyLZJF1NE3J+mhjDlHlGAuK8UEQJZywrZIikx8ZExsfGhcsASMZIUwaeK4N5Y6RdJ+RpuQk6cVnPAw2Rl42x6qnOFLJJutQDHclZJ3mXh7IT2iW2svhpvusGXnVhADUDCP1ZooWTPBGKxDLHVHMmIQv5BKMty4WOVS/ARNkkXU39Z6isP0ypZCQgzgtVKYT6EnTaGsXPkSeJCo0n+l83ApNIzk8TY5giL64zzisr6/mWNe4rQIGZhjxBPmWRUFFZo46tTk0SMua7jEL7YpnjuMOAhGxqXU2dIOZn2BOThXKJvFikCkbilyYzqYCyJtMsS5Q3FU0Co9iq0KRcNqFuy3KZ46mMQDy1rqb6BVzWH0ff1giRD/j/agTfAqbwf9cIgQy8C8mGcom8WEQDTFD47UZQiomiskYdWxWalMtcpIR9SFzo+GlGmAobQhLJ+WliTEBOKuF5oUhq5/fPoE0GCiZQAoFCHCtYXjqTkqpsWrLZlKQ1sPC8CFIyWhyXkVHGBMZbHa7j9FRBi2W50PE3BUvpdEqqq1KSqSDv7WhWREixJJJHXwL/1GCJBmCHQU5QCAOwBpubKmTV8hqZOyurfAxGFzD4W52jcuFqXgaHtELNszpcP5KBcJESgQ0NOn6aEepq07JmWVZmz6hQGcGymaQ0AHrYXZKzlwsyNPLNRjADoIDxUyigULYyJSuW1sgfvj5NVi6rkUJhXJ70FGUUOMBwfkzOXszLZ0f75UkvzB/V9TQjELmMQvtimeOpjNDSlJHd22pl7Yoq5QnMqsbqbKzHrsZ4rt4uyvsfDcnXd9EXLeb1AMV1YjXbZsBPP8MGLkM+9Wn1WTMqYfVKaWmuwCyX5NjJAek43i+HTvSDHpSrN/IyPML4My7PJNqrEQo+wWUU2hfLTAHIeYLTeczqlRsFOX5mRE7wd3ZELlwrYEJEZrZk0MeMzGzNSH0dhhdXrGWVTbQbh8Kaw8+wQYKGEbjMH3YVpH+wJI0NFTKEWacB9h/ulw4Y4dL1vOQhK2vUsbWpSbks0Rn/YpkxiQ4DQHO1nb86KvuODsm+Y0MwQF66+0pYqQI8Jg+6xnS+daK1Tk2McRTqLA+FHccFCKSNH8HsXrw6LAeP9UltTUp2b2+QNfALQ8MlGYBRmK/bSdWtjDOKrU1NymXeGRXaF8sCinTs8sOVxokogV40t0KeX2vbYd+xvNzoxFIgJOp4mhF0BZheQkG/wMdAva4nRdl/qE8+OdgrrdgK33+tWTY9m1M/YfpeSItrEhjFUVsRCkYgTQBhHxIXOk4aIQWNHCZh7bIqeXlLrW7Rz44Py+FTwzJAJxwgqoOfJsY4ggHIJDqWwHGBGOhgHj0uykf7e+XDfb3SUJ+Rt3Y3y4Z1Oamp/s8YIeQTjLYsFzoORsjVpKWdg99cI/W5tBz8fFg6Tualb4BL0MEqSNTBTxNjAPQSDomOJTALJDtHRP5xd1F+c6BHPu3ohbPJyOs7G2V9e61uDdONC5Q16jhqK0Ll7SgRWFNWzG3NNtqXZ3XwDfD6R04OyyEMvhunT1m9gJgPdfDTRBnzAZ6nWZ4RFPTDb3ikJI+x/Pv6ilKCM+Q+JM/tQEdIj7ttU53MmZmNnI8nXo0mgVFc1tlIFvIJRltWEI5LaxPa2lAjTQ0ZOXY6j8EP69Zkn0qlcenrH1OnWCjYatCiWq/XQdIrzixY/mfvmhS9ZscVEmd3kEF5YGhMbt8dkfuPRqVYVJF6fa6GAvwOG799dxQzUdS2QhVRJVqdJoFRHLU1EVkGifDhl8IKSOO4q5BrtwpyGIN/hKDHYhnTL+Hof/RkTG52FrXPQR5X5wRQavubJxEJ8qynkBLLI2F6hisq0xoKM2pUb8/Ru34FQlIei7majA5+cJhHoVXEsqy7oiKt/mI6Ot7SXKlBSwXqq0CIzapovHx+XI/Wnv4S/EwJXj7ufGiLXBblWpozGu4+7uGyDzoeJlezXsYLOLoZkxG8HkOsyPntb34RR4IqJKF5gMTsJDBnwXiCy6CYpktFZyLbQFaXy8iKJdWyEpFk67QK/CplGiK5KhigEidHRYax2LjF7jAsjWAGKErnwyJmeVRu3i3YTIa2tH7rW2xowwqBpo5jBceGkDA/MkAkYy4JE5GIC8T4aUYIPMnp0ytlz45G2fRMHSIzC5wedhXl/sOCDpariFuH+5ErhKuitjaD4zWjUSeN9PXtAvb5kBz6YqgsxNaWQnuOfxcjpLa/AQOocwgKzCRNwkQkQgGTGQ5G4LLjNiBwJlldDgPZvqVBfvSDFjilknz+5aDcgn94iJnl7OqtEYYvYOmzEpbnFqvB/p7WWAEDVMii+VlZt7JGt8f7H/bJ8S+H9f5RCV3Wz2CoQF+kVVj7Uxkhkk3ARJm2Ze+8q2tWZa4AbDpIgmiSDNdR7F8egW1zq2TVslqZhsCob6CknWzGIHZta5Bli6rl1Nkh+fhAn1y8lpd7D2w5M56nEYoYXAmDYJlhLH+W74JTvf+oKL0IaxlsLZpfJf2QX7s5KiPQmz8nK9/bVa/nPwdfgiHp+NQQ7FkYKCEarMsm4MyCpe+8Wz5+VwA2HSRB5DJWVl2VloXzqmTLpnrZsbURV+Va1eAsD8B50Sk+v75OFi+oZgEESWnIMvDg+IGm4XLwD4FugoPkJWsGnOQCDHDV0mp5ZlWNrFhcrfk0yMVrI3DA48ivlFe25WCYSlk0r1JvgDTCIAzLFUj4tkZIvfT6CXeCYFQYJYqsEAkT2dtApaxdncMA62Vhm83Ozduj8uX5QTl3cUijsTmzsvLTt2fIlufqpBOzPoyTQVI260/guYv+eMIfVxL3O43BLcAojzJ2izKGuZ+fHZb3ftWjXn86nOkzq2tkcVsWBshqBHr3flGOIAw+d2VEuhEHEKYyQjxO46MVoBBlRomC6dLLp6S1tVJ2bGmUPTubdclzwAeO9MmJ0/1y4/YILkY8AgWzViHrVtXqzDNY4iWKtzjOFI8+ng48z7lVmhszuqLSOLq4lHth0Bt3RuUCBvMAt08+xvQgsDl3mY8tYzDmuJ4Qd+4XcN6X1CcswEpYAoPQcDQ4r8ba6zBwQqCjcXIFvHY8WgEKUWaUKGJFXNYvbW6SPbuadeY6jvbKF2cGNArjHratRGXRFfAnP5wh8+dm5e//uUsuXhnW87kKA+Xgc9i/GRiUjo/PbeoT4NS4x7lahuAPeEqsxBH61u5GDKqoK4AO1Lplxy4NxxPm2TU1suP5nB6tH+wfkE+PDKIu6lnfI5gwToTCxkceBFipOFHEJcpXoRc3N6jqB795LPsO9Ujnfe5LzDqF+hnWHzlgLndeXR89LsidzlG5cj0vZ84PyalzQ3L89IA+rJw6h+0DIzGPT2s06pCe/bbtrFdaaVQ3J46r6hauvweOD8rHHQMwqsjel3KyfjV8j49J+xYg0MCk/DocCwNWyhMarR6z1r4qJzOmZ+XwCcw8lnxfP+NvVwwF9FNGO87I75k1tfqSxCszIzS2x/tEsYgZx0piTFDEzPO4I3AZc1/Pm12pxyDjAq1Ss00n0Owy+9AN33Dk5JB0nBiS+Sj3/LoafTgNY3qaETJtS3/+buCjpTJhmXCpzpxZJZs3NmoY+sHHT+TuvVHTUYCeFkHimJ57w7o6PR7p3fmYOm92lbQgEmxAHvc1fQDPc+pSZyb8ywKcLO3La2Tzhpy8+HwdnB3v+hlEg6PylfuAqK0EIsHtw7iifXm1+hM6RA2nNdsUJ26H1LbdBzD+5OMiFCYoMUhZtrhW3v7BTPXSf/m3nXLjVp6Z+hm4EbzsnFlVOAVmykZEgddv5nW/cv9zyXK/cwYLWAHc5yzCp/aU+gTMPtqohqE5MYwTeIc4qadAN5wefEBoKzTuNPu+EKfCO3/crL7gr97rkctf40LgfQo4aYR0qTQcLwmA7WX/mUDG0ImhoZL+OBucMauDeqoFsOVoZQ3zetrVXYCv6JV//GWX/Hpfj1y4zKtrQcNibhEec7XVqA8G4tMaQ+WvLg7Lh/t75V8+6JYDx/r12IwaUuRtTZCl0+O4Iqc1luC2sksZs4Ke4eR2yMxf8vN3McfGJSyT3A7UZ2e5DZYtqZUROp47I7i4oGOqhiQqarOjx2B7nZ7hB4/2yemvBuUOts2N23m5gojwAo7Fc5eG5Sv86BDPnB+Ws6DPwUAXruQxc3l4/lHs44wsX8xYY0zzeMzG7cUrgQZkfLBzC7bd0io41Twc7LCGyrG6phHmGDGuqtgiCctMlPEZ/MKlQXnwcFQ2b2qQHduapBFnuOnhFxUNs2Pt8JjiEqZoECcBX5Vvd47I9RsY5HUO1n6X4f1v3BrRPJ79DK7oFGtqLOpU8Kbi9qwtbq8ZGPxLm3LyXHu1XMGyPwqHyO0WdE1d0wiz75m2xXCCyppFnDAMCDJ6Wi5RLuuVy3KyenlOHVg/ApQnPQUvgsSLmhOsl+U4OmswgGwlozt70dWYQRs15XhP8pRgpJlBvF8lG9flNJLkaXAXQQ9XDJc15tuaQjnWvXRBVnZtrVMD8FT55a974TBH7FRJ1O1fLANObXv1cFkg9E1GoJNqwqxv2tCAYKhFlsAxnjk3IIeP9cpp4EeYOWjpRyf4sx/Nkp0vNunq6ceN8B5WT3cPLzkl6cURymXNvzLx2OOJUAnHx+O2BbPJoGsmrtOMEjkQ/sXpvX/r1tsk62f0N72lUp7FKfHC+loYKYsthnjg2IAcPYXZhyGoqF2PxmJ9Uy6MadsrMEC8BMoy44IkYxkjujUrc7Ln5RZZv7Ze/yZw/vKgnDjVL6cQGfIyNAdHHk8Bxg4nEOyw9CJcjPggwvCYTkpDY7gRPSHg/WmISmAa5cHDArYC4gwslSUodx7bhAZggNQKJ7d1Y51GiW2INLlqvrqUl88w+EtY/qPhhLbBWN+joRhtWVwBNEA4i4LQsULAgKQR2OhszPLG9Q2yEtthOs7wi1eG5F8/6NKIjyvgJ2/P0qX8d//0ALF9XubCKFxB3Dp297eQmKcMly63Bo9IGpQPrjzD5+Fm+OarTYg4C/Levz/Rq3L7ihr585/M0G3E2yfvCGdwcjBc5m3Quhn6asnTjJDa+vKh+FRIDFCpBB/AKjKeqApemoaYNSOLQYzJ5WvYpwhWyP/4hzNl9cpa+Yf3H8mh4706QJRSj80XIBqBq4lbkOc9//TGx1ZemFh3Q32FbIYPeG1Xk4bIv/jVEz0SF+Cs50vTJVyPbyNsZmygR170Z34O2LBCJAv5BKMz8xf+DJFgKEC5E46Tsx4gSTHO7+3jMxfid8z8KIxAg/LY5OPn6hU5fQPghYcBDiNJgg4aZQfgHzj7HDS3AFfHDKwmPoK0Iwx+Do6Qq4axwWUcnxY6j+vM09tzRahhE4MP2LqsSQKFfAK4rbs63Ad8RyNMlAEr5QkHs7ANN7m9rdgitWoUvhjzGOTy5onC5UqD0Th0alwRNEArnBvvEIwl6A94XH6CK/X1myOJB48oUZ4oHlyMrXualMssww0Q+YD/WiMw9J0/t1odJp/NmhD/12NZ8zrMAXM1MMzmDOjyx+B0VcAH9PTyWbykf3K/dmNEb5GM9RMNWLOWKE/0XY2Q2rrzYNkpEGUSAuH4aUYgy1nkso/e5lTFVgL3eV2uQpcyL0N8UeJNjQbgL8QGNAKXNwfPcJm+JLwxsl6tlG2hHRqO5bh1rD/aoKuYnjOKrcualMlSW2AA/sEz5IXKrABJG1hjI5Zla1aGsXQfPBq1ENOy4ckrZMXSnDpDxgV37uECkjCCgtfDI4+YYjWeEqYS3vhpQP0pHesSWJY+gn+M5Zb64sxQFO4y4aqbg6s3L0OdOEp/23/X0T+OIi6z1gg6fXE4S6ICV4W2edXy2qutCIObdJ9SzjpIr1tTJ3/wxnTkNWoQw/Fp8ThRfZ0xenvONn7c/zw5iEfh3Pi3PMp5ItBJWh+Q8PNq2Caf0ba/UC9v7W6CIWr93s/ccX0p3roxJ2+83KiGCOWZRPVFSP9/gCmUG8GS0CgHxNB24YIamTunWvcvO1KLiw4vPHtfaVGPf+7CgNy7P6oDZWGvJiQmC7yLSJR1zPPK+qO06TEw4vb4EhcovjK/satRn8PCX6UrMVlzZlYiPK5SY1gdLG+4rC2goKEobpSYhBcIvwBoK4fBMwrkquDgDx3rlv0dTxAOj6hTU0BhpeLEZIF3EQlrJ8gMx/0hkLaV8RgG2NfRKx2I/Bgy70VMwIcT/f8JCWDRuI4YR+0D/E3QGNPRxHkSKjGRy+nFn1vfKG/snY7QNisdR3rks4PdelMMz1reiuK4bELmdQcRCSsSZIbL+qM0Hd+4Rpt8jT7yeb861z07GrASajWkjnUDcjqBQ1vmA0JnTMbsiFXN8EPd3AobNzTK63sw8/Do+w4+kf343X84Yktfi3jhBFYqThT97kawyJF/pj94rF+OftEv03DEvobtsKG9Vh9GDbyQFrFyzihmW7EPCJ2xPGZHbIAqXGmXw9u/urMFS69SPvqkS/Z91oVTwQdvvVf4HzECjk1GoAdwUzx8YkBfgvbubJRFbfETX1RIi1g5ZxRHtlJZ6EzgLWGGCrLwtvNxGsyZXS2d9/IIfUfVKa5dXafBDm+AdEIB/ruMwIhxYVtW1q6qldWIMmcgcqRf6IQDnoUrNP92qMBKQt3K89MkMJLa/OK+KBTWlIelkr6XgPgs9ewzDfKnP54va1bX6/8KuXOX/yHJgwEA44PTZ/rl0wO4sHQXWJHneJ1GRFipOFFkeiRMRMKKBJlhvgO8/nKztK/OUahZ1ONbwtzZ9tehS1eH5W9+0SVncYeYakwh/sjMa/upPYsnFEJm4DUbZBrXuH4MuhOBDvEozm09w4H515wHD0bk1h37E5iC9V5hciemMAKwFUESRJNkdmfgQBkPaDyhMcW49CNy5J/F+LTGt0YO3t4QtZaovIKy+PfCtn1YgW6BhMLEDjNkbUIIy73PlyGFxCB4PDGG7+4paKe81zEGWJ0xT1q5ODFZ4F1EQmVethJXaf5dktflpE7I53B4j3jM/zvkYyuv0/SUfWHbp/okNpXCNy0d40mEykk6AaxUgg+gdRoRYdONEkWmR8JEJKxIkBku60+QhbpDnrImmzgm++sDwBCSgJlCGDkoFfDTxHnL8yqcN6w5CT7AJJnrJhJFUbsuImFFgsxwWX+CLNQd8pQ1meaFugEaB3jNkxtwFHUm8JY4b3lehfMxnjRgwCQZsFJxoihq10UkrEiQGf7uRogSPwbJeAFD5B07+n01QtqbNYkXMETesaPfRyP4ddiBEi8wqYGAJvDfxQiTMODbGyEQKgF8FyM4G/KUN6GHwt4ogdpeYlIDTDU/5i07yIxXScQ7AWxZMR8gniWHSDdKTBZ4F5GIZAqWp6WDSOmgR/A85f0ypEAlJ1XbSxgi75ip5se8ZSdkjr0KkE4AW1bMB7A6Yz7WjRKTBd5FJFTGJJGnpZUnkA5lCZ6HX7QCTO6NErRC4wyRd8yUupphvGVr4gyJRKOBYDlFMR8gMkIiT6k4MZnm4+ciElYkyAxraeUJpEPZwIv8B4WQxq5C2ovvAAAAAElFTkSuQmCC;" parent="1" vertex="1">
          <mxGeometry x="218.67000000000007" y="428" width="43.64" height="45" as="geometry" />
        </mxCell>
        <mxCell id="XRFB1vrl8tOcv41Xk5D3-89" value="&lt;font style=&quot;font-size: 13px;&quot;&gt;RDS DB&lt;br&gt;Master&lt;br&gt;&lt;/font&gt;" style="text;html=1;strokeColor=none;fillColor=none;align=center;verticalAlign=middle;whiteSpace=wrap;rounded=0;" parent="1" vertex="1">
          <mxGeometry x="265" y="428" width="60" height="45" as="geometry" />
        </mxCell>
        <mxCell id="XRFB1vrl8tOcv41Xk5D3-90" value="&lt;font style=&quot;font-size: 13px;&quot;&gt;&lt;span style=&quot;&quot;&gt;RDS DB&lt;/span&gt;&lt;br&gt;&lt;font style=&quot;font-size: 13px;&quot;&gt;Secondary&lt;/font&gt;&lt;br&gt;&lt;/font&gt;" style="text;html=1;strokeColor=none;fillColor=none;align=center;verticalAlign=middle;whiteSpace=wrap;rounded=0;" parent="1" vertex="1">
          <mxGeometry x="546" y="278" width="64" height="45" as="geometry" />
        </mxCell>
        <mxCell id="d-93db96H7rgeAo_u0tM-118" value="" style="rounded=0;whiteSpace=wrap;html=1;" vertex="1" parent="1">
          <mxGeometry x="94" y="595" width="600" height="437" as="geometry" />
        </mxCell>
        <mxCell id="d-93db96H7rgeAo_u0tM-119" value="" style="rounded=0;whiteSpace=wrap;html=1;dashed=1;dashPattern=1 1;strokeColor=#3399FF;" vertex="1" parent="1">
          <mxGeometry x="104" y="635" width="580" height="390" as="geometry" />
        </mxCell>
        <mxCell id="d-93db96H7rgeAo_u0tM-120" value="&lt;font style=&quot;font-size: 15px;&quot;&gt;Availability Zone A&lt;/font&gt;" style="endArrow=none;html=1;rounded=0;dashed=1;endSize=6;targetPerimeterSpacing=0;strokeColor=#3399FF;fontColor=#66B2FF;" edge="1" parent="1">
          <mxGeometry relative="1" as="geometry">
            <mxPoint x="174" y="664.75" as="sourcePoint" />
            <mxPoint x="364" y="664.75" as="targetPoint" />
          </mxGeometry>
        </mxCell>
        <mxCell id="d-93db96H7rgeAo_u0tM-121" value="&lt;font style=&quot;font-size: 14px;&quot;&gt;AWS Cloud&lt;/font&gt;" style="rounded=0;whiteSpace=wrap;html=1;align=center;fillColor=#000000;fontColor=#FFFFFF;" vertex="1" parent="1">
          <mxGeometry x="94" y="595" width="80" height="20" as="geometry" />
        </mxCell>
        <mxCell id="d-93db96H7rgeAo_u0tM-122" value="Region" style="rounded=0;whiteSpace=wrap;html=1;align=center;fillColor=#3399FF;strokeColor=#6c8ebf;fontColor=#FFFFFF;" vertex="1" parent="1">
          <mxGeometry x="104" y="635" width="50" height="20" as="geometry" />
        </mxCell>
        <mxCell id="d-93db96H7rgeAo_u0tM-123" value="&lt;font style=&quot;font-size: 15px;&quot;&gt;Availability Zone B&lt;/font&gt;" style="endArrow=none;html=1;rounded=0;dashed=1;strokeColor=#3399FF;fontColor=#66B2FF;" edge="1" parent="1">
          <mxGeometry relative="1" as="geometry">
            <mxPoint x="454" y="665" as="sourcePoint" />
            <mxPoint x="644" y="665" as="targetPoint" />
          </mxGeometry>
        </mxCell>
        <mxCell id="d-93db96H7rgeAo_u0tM-124" value="" style="endArrow=none;html=1;rounded=0;dashed=1;strokeColor=#3399FF;" edge="1" parent="1">
          <mxGeometry relative="1" as="geometry">
            <mxPoint x="454" y="1013" as="sourcePoint" />
            <mxPoint x="644" y="1013" as="targetPoint" />
          </mxGeometry>
        </mxCell>
        <mxCell id="d-93db96H7rgeAo_u0tM-125" value="" style="endArrow=none;html=1;rounded=0;dashed=1;strokeColor=#3399FF;" edge="1" parent="1">
          <mxGeometry relative="1" as="geometry">
            <mxPoint x="174" y="1013" as="sourcePoint" />
            <mxPoint x="364" y="1013" as="targetPoint" />
          </mxGeometry>
        </mxCell>
        <mxCell id="d-93db96H7rgeAo_u0tM-126" value="" style="rounded=0;whiteSpace=wrap;html=1;fontColor=none;noLabel=1;strokeColor=#00CC00;" vertex="1" parent="1">
          <mxGeometry x="124" y="675" width="540" height="331" as="geometry" />
        </mxCell>
        <mxCell id="d-93db96H7rgeAo_u0tM-127" value="" style="endArrow=none;html=1;rounded=0;dashed=1;endSize=6;targetPerimeterSpacing=0;strokeColor=#3399FF;" edge="1" parent="1">
          <mxGeometry relative="1" as="geometry">
            <mxPoint x="174" y="664.75" as="sourcePoint" />
            <mxPoint x="174" y="1012" as="targetPoint" />
          </mxGeometry>
        </mxCell>
        <mxCell id="d-93db96H7rgeAo_u0tM-128" value="" style="endArrow=none;html=1;rounded=0;dashed=1;endSize=6;targetPerimeterSpacing=0;strokeColor=#3399FF;" edge="1" parent="1">
          <mxGeometry relative="1" as="geometry">
            <mxPoint x="364" y="664.75" as="sourcePoint" />
            <mxPoint x="364" y="1013" as="targetPoint" />
          </mxGeometry>
        </mxCell>
        <mxCell id="d-93db96H7rgeAo_u0tM-129" value="" style="endArrow=none;html=1;rounded=0;dashed=1;endSize=6;targetPerimeterSpacing=0;strokeColor=#3399FF;" edge="1" parent="1">
          <mxGeometry relative="1" as="geometry">
            <mxPoint x="454" y="665" as="sourcePoint" />
            <mxPoint x="454" y="1014" as="targetPoint" />
          </mxGeometry>
        </mxCell>
        <mxCell id="d-93db96H7rgeAo_u0tM-130" value="" style="endArrow=none;html=1;rounded=0;dashed=1;endSize=6;targetPerimeterSpacing=0;strokeColor=#3399FF;" edge="1" parent="1">
          <mxGeometry relative="1" as="geometry">
            <mxPoint x="644" y="665" as="sourcePoint" />
            <mxPoint x="644" y="1014" as="targetPoint" />
          </mxGeometry>
        </mxCell>
        <mxCell id="d-93db96H7rgeAo_u0tM-131" value="" style="sketch=0;outlineConnect=0;fontColor=#232F3E;gradientColor=none;fillColor=#B266FF;strokeColor=none;dashed=0;verticalLabelPosition=bottom;verticalAlign=top;align=center;html=1;fontSize=12;fontStyle=0;aspect=fixed;pointerEvents=1;shape=mxgraph.aws4.internet_gateway;" vertex="1" parent="1">
          <mxGeometry x="388" y="655" width="40" height="40" as="geometry" />
        </mxCell>
        <mxCell id="d-93db96H7rgeAo_u0tM-132" value="&lt;font style=&quot;font-size: 15px;&quot;&gt;Internet&lt;/font&gt;" style="sketch=0;outlineConnect=0;fontColor=#232F3E;gradientColor=none;strokeColor=#232F3E;fillColor=#ffffff;dashed=0;verticalLabelPosition=bottom;verticalAlign=top;align=center;html=1;fontSize=12;fontStyle=0;aspect=fixed;shape=mxgraph.aws4.resourceIcon;resIcon=mxgraph.aws4.internet_alt2;" vertex="1" parent="1">
          <mxGeometry x="708" y="595" width="50" height="50" as="geometry" />
        </mxCell>
        <mxCell id="d-93db96H7rgeAo_u0tM-133" value="" style="edgeStyle=orthogonalEdgeStyle;endArrow=none;html=1;rounded=0;opacity=40;startArrow=classic;startFill=1;" edge="1" parent="1" source="d-93db96H7rgeAo_u0tM-131">
          <mxGeometry width="50" height="100" relative="1" as="geometry">
            <mxPoint x="384" y="825" as="sourcePoint" />
            <mxPoint x="713" y="615" as="targetPoint" />
            <Array as="points">
              <mxPoint x="408" y="615" />
            </Array>
          </mxGeometry>
        </mxCell>
        <mxCell id="d-93db96H7rgeAo_u0tM-134" value="&lt;font color=&quot;#00cc00&quot; style=&quot;font-size: 14px;&quot;&gt;VPC: 10.0.0.0/16&lt;/font&gt;" style="text;html=1;strokeColor=none;fillColor=none;align=center;verticalAlign=middle;whiteSpace=wrap;rounded=0;" vertex="1" parent="1">
          <mxGeometry x="174" y="675" width="120" height="30" as="geometry" />
        </mxCell>
        <mxCell id="d-93db96H7rgeAo_u0tM-135" value="" style="rounded=0;whiteSpace=wrap;html=1;fillColor=#D5E8D4;strokeColor=#82b366;" vertex="1" parent="1">
          <mxGeometry x="184" y="705" width="170" height="133" as="geometry" />
        </mxCell>
        <mxCell id="d-93db96H7rgeAo_u0tM-136" value="" style="rounded=0;whiteSpace=wrap;html=1;fillColor=#d5e8d4;strokeColor=#82b366;" vertex="1" parent="1">
          <mxGeometry x="464" y="705" width="170" height="131" as="geometry" />
        </mxCell>
        <mxCell id="d-93db96H7rgeAo_u0tM-137" value="&lt;font color=&quot;#00cc00&quot; style=&quot;font-size: 14px;&quot;&gt;Pubic subnet:&lt;br&gt;10.0.0.0/24&lt;/font&gt;" style="text;html=1;strokeColor=none;fillColor=none;align=left;verticalAlign=middle;whiteSpace=wrap;rounded=0;" vertex="1" parent="1">
          <mxGeometry x="224" y="705" width="110" height="40" as="geometry" />
        </mxCell>
        <mxCell id="d-93db96H7rgeAo_u0tM-138" value="&lt;font color=&quot;#00cc00&quot; style=&quot;font-size: 14px;&quot;&gt;Private subnet:&lt;br&gt;10.0.2.0/24&lt;/font&gt;" style="text;html=1;strokeColor=none;fillColor=none;align=left;verticalAlign=middle;whiteSpace=wrap;rounded=0;" vertex="1" parent="1">
          <mxGeometry x="504" y="705" width="110" height="40" as="geometry" />
        </mxCell>
        <mxCell id="d-93db96H7rgeAo_u0tM-139" value="" style="shape=image;verticalLabelPosition=bottom;labelBackgroundColor=default;verticalAlign=top;aspect=fixed;imageAspect=0;image=data:image/png,iVBORw0KGgoAAAANSUhEUgAAACcAAAAtCAYAAAAtOHJTAAAAAXNSR0IArs4c6QAAAARnQU1BAACxjwv8YQUAAAAJcEhZcwAADsMAAA7DAcdvqGQAAAPcSURBVFhH7ZhfTFNXHMe/pZSWFtqCQlf5J8HhQNb4X8PqHJrpFo3GzPiymT0s+mT0xRmfNl9MfOPBZSbGRBPlQTQONWHRGc2SRedfrKISwSo6oVShUIqlQHv9neM1eymXew/HhEQ+Nyf0nHO599vf+f1+53dq+v1qvdLc1oSpiOnXCz8rDS1H1e7UIkP9OyWZFifKxyXOZDKBXTKQEq2WDAtWVqzG6jnfoiCnEGPJMdztuoXmtrN43v9Mvcs4k7acz7sQv3x9AFsXbcPQSAxXOi7ixourqPlkPvZ/U48N1d/BnuVQ7zaG+autX+y7H7qrdo0xz+PDj4u301ICjYET+Ku9Ga2hANrCDxDouo2R5AhWzVkLq9mKzkiQ940gbLmcrFxuFUVJ4VSgAf92/oPQYBcGE1EMDPcj2NeBcw9O42HPfSwv82Nu4Tz1P/UjLK7EXUb+5UHLy5vcWiPJhDrzP9HEABrvncDwaByf0zLbLNnqjD6ExZXllWNwOMotlEgj7D3hwRBZtBtOmwsuq1sd1YewOE+OF0klyZdRC4WuN6NDsGXaKDDs6qg+hMVlmi08p6XI5yZCURR6EV0mY68TFicnzWqjOwl7nUXwl9eh1D2b933eBXDZ3HgUbsXroVd8bDzYvY6sHJ5iIvE+PvZ38BIF0y0kU2O8nw7dlmNClpQsR3l+BSy0pMHedgS67yCWiPG+Vgv2dvCIjo++IZEO1JZ9iarCGphNZvXp6dFtuWqecLfx5HqZdgFRmAV3rdiDe90tOH77CBJj40e6IZ9LpVLoj0d4shVtPbFuit64+kRthAMiHRX5n2KL73usqVyHGfYCdVQcaeLWV23CTv8eLCv144eFP2EXfa4sqFJnxZAirthVykU9ft2GQ9fqcfj6QeTZZ8BHW5Y5Q9vptZAizp2dj1xrLrqi/+FJXztPL3HyKzs5v2kSr5Ai7nnkKfqpEllaUgv/7DpsrN6MIlcxr05StMWJIkUc21+bWk/SlpaJvXX7sHbuepx/eIYnWj3b23hIEcc2d1a3naa6rpOseKn9TyrRm3jamQxSxDFYlRse6qGljCAcCyE6PKDOiCNN3IdAqjgWoU9oz301QSGgF6nieknUH62NfP+VgSFxLBpnOgp40k3XPLleZNM5IY/yXrp51oqcJXBY9B0VdVclVZ4a7KjdjcqZn9HBRbs014JVw4V0MDpy/Tc0tBxLezB6j25x2RY7ZjmL4bS61JHJ8TL6gnyzh5fw42Ho5wj+G4is+pw0sfyohSGfYw9j31RKm0AY4+PJc7KZFidKxjvXTE3JNr2sokyLEwN4Cy4NGYFNvr9bAAAAAElFTkSuQmCC;" vertex="1" parent="1">
          <mxGeometry x="184" y="705" width="34.67" height="40" as="geometry" />
        </mxCell>
        <mxCell id="d-93db96H7rgeAo_u0tM-140" value="" style="shape=image;verticalLabelPosition=bottom;labelBackgroundColor=default;verticalAlign=top;aspect=fixed;imageAspect=0;image=data:image/png,iVBORw0KGgoAAAANSUhEUgAAACcAAAAtCAYAAAAtOHJTAAAAAXNSR0IArs4c6QAAAARnQU1BAACxjwv8YQUAAAAJcEhZcwAADsMAAA7DAcdvqGQAAAPcSURBVFhH7ZhfTFNXHMe/pZSWFtqCQlf5J8HhQNb4X8PqHJrpFo3GzPiymT0s+mT0xRmfNl9MfOPBZSbGRBPlQTQONWHRGc2SRedfrKISwSo6oVShUIqlQHv9neM1eymXew/HhEQ+Nyf0nHO599vf+f1+53dq+v1qvdLc1oSpiOnXCz8rDS1H1e7UIkP9OyWZFifKxyXOZDKBXTKQEq2WDAtWVqzG6jnfoiCnEGPJMdztuoXmtrN43v9Mvcs4k7acz7sQv3x9AFsXbcPQSAxXOi7ixourqPlkPvZ/U48N1d/BnuVQ7zaG+autX+y7H7qrdo0xz+PDj4u301ICjYET+Ku9Ga2hANrCDxDouo2R5AhWzVkLq9mKzkiQ940gbLmcrFxuFUVJ4VSgAf92/oPQYBcGE1EMDPcj2NeBcw9O42HPfSwv82Nu4Tz1P/UjLK7EXUb+5UHLy5vcWiPJhDrzP9HEABrvncDwaByf0zLbLNnqjD6ExZXllWNwOMotlEgj7D3hwRBZtBtOmwsuq1sd1YewOE+OF0klyZdRC4WuN6NDsGXaKDDs6qg+hMVlmi08p6XI5yZCURR6EV0mY68TFicnzWqjOwl7nUXwl9eh1D2b933eBXDZ3HgUbsXroVd8bDzYvY6sHJ5iIvE+PvZ38BIF0y0kU2O8nw7dlmNClpQsR3l+BSy0pMHedgS67yCWiPG+Vgv2dvCIjo++IZEO1JZ9iarCGphNZvXp6dFtuWqecLfx5HqZdgFRmAV3rdiDe90tOH77CBJj40e6IZ9LpVLoj0d4shVtPbFuit64+kRthAMiHRX5n2KL73usqVyHGfYCdVQcaeLWV23CTv8eLCv144eFP2EXfa4sqFJnxZAirthVykU9ft2GQ9fqcfj6QeTZZ8BHW5Y5Q9vptZAizp2dj1xrLrqi/+FJXztPL3HyKzs5v2kSr5Ai7nnkKfqpEllaUgv/7DpsrN6MIlcxr05StMWJIkUc21+bWk/SlpaJvXX7sHbuepx/eIYnWj3b23hIEcc2d1a3naa6rpOseKn9TyrRm3jamQxSxDFYlRse6qGljCAcCyE6PKDOiCNN3IdAqjgWoU9oz301QSGgF6nieknUH62NfP+VgSFxLBpnOgp40k3XPLleZNM5IY/yXrp51oqcJXBY9B0VdVclVZ4a7KjdjcqZn9HBRbs014JVw4V0MDpy/Tc0tBxLezB6j25x2RY7ZjmL4bS61JHJ8TL6gnyzh5fw42Ho5wj+G4is+pw0sfyohSGfYw9j31RKm0AY4+PJc7KZFidKxjvXTE3JNr2sokyLEwN4Cy4NGYFNvr9bAAAAAElFTkSuQmCC;" vertex="1" parent="1">
          <mxGeometry x="464" y="705" width="34.67" height="40" as="geometry" />
        </mxCell>
        <mxCell id="d-93db96H7rgeAo_u0tM-141" value="" style="shape=image;verticalLabelPosition=bottom;labelBackgroundColor=default;verticalAlign=top;aspect=fixed;imageAspect=0;image=data:image/png,iVBORw0KGgoAAAANSUhEUgAAACYAAAAnCAYAAABjYToLAAAAAXNSR0IArs4c6QAAAARnQU1BAACxjwv8YQUAAAAJcEhZcwAADsMAAA7DAcdvqGQAAAUESURBVFhH7ZZZTJxVGIbfmWFgWIZ933cpqxVqK5UqtVHSNlWUhlZTY0xcEi+MvdLEC73SxESjURs3bpqm2qQ1hlYNia0hBAgVCQJhXwcYhqGzD7MPfufkH7ZZYJpGueCZ/Bn4t3nPt7zfEZV8kryGPYio8OPEPSlMLHzvOfaFBcu+sGDZFxYse1ZY0AYrFokRI4tFQUIxHs2uRao8HRa7GUOqAfQr/8aScRE2p1W4+/4JSlhYiAxNFefRUHIGbrcbs7ppKHSziJBGoDLtESRFJaNzph3X+i9jSjMhPHV/7FpYXHg8LlS/hsMUpTsTbeie64DWooXFYYZEFILY8DgkRSbjTFkTEiOT0HL3ErpnO+BecwtvCA5J/ImID4S//SKjSDU/fAGlKRVoHbqO30ZbodDPwmDVkzALVkmcZnUFi8YFjKtHkBdfQAs4CpVJCaVhQXhLcOxKWG3OMRzLP47O2Xa0jd2CwaYXrmxljaKjt+kwrZlEaWol0qMzsWiYR05cPg6m1/D6NNqMcK25hCf8s6OwUEkoGiuaeUp+H73Jo7ATRpsBIeIQHMl+HKcOPIdDWY/hQHI5ni4+hRR5Ko+2iQQGYkdh+QlFOJr7JAaUfehRdJLAnVe7Rp8VsxqFicXkR2LcGPgRt4ZvYE43w6MvD5VTVCdgDdC9OworT6nkNfMPCWMv8wUr9saKczhd0giH2w61aZlqbxUTK2PoVnRgZHkIyyYV5vUK3kQFiUW89pi1+GNHg02m0FPzwkwF7ovMmGy8ceRt1GQeRlSYHG/VXsTJkmchlUh52hdIjCcyVqcFg6p+RFLE8imaUioTf/gVlktReqfuPbxS8zpsLitFQSVc2UpJchnZRArap27jUtdn5GtzyI7N5SJ9MaYexjCZMfPDb5uu4HTp84gIjRSubuAzlTlxeXj10JuIj0jE9YGrvBOVFPbt9VWXdxxnK1/itSSXRSOXuq8qrRpZcbk8Ymwx2zuYpXqGurafSsPpcuCpogbeKNPaSTjofw9ewlgXNle9TKIS8PPgT+giI9VYVuByexf9C5Xn+SLGV0apywwQiUTQWTRkG2vcIub1c5jVTgl3b8DqT21WYfLeOFwuJy2wnsaYjQRP8cZheKUyPTqDVp6HwaV+9C328pewH/IFG0X9yl581/Mlvun+Aj/0fI2vOj/lXai3arkx+4PZj96qw+3JNm4vRYkPbUm/lzA2lMPpB3X00G6GMfMjlVHJO2zzsWpfFe4IDJsearKWqLBoRMtihLM+hEWSatZFZntgA/QQIpZCJpXREb5+sG4TU1p3A0sdG2cSkYR3qwcvYUargacgatNN/rC77Ggsb0bL2Wu4+mLr+vHRyc95tzrcG8UcCOZtbFxtzpDX7iKD5tvFJ96nlh7Elb4WXmP+yIrNQZo8AxKxRDizgdluwpx2hkpCK5zxDSubd+s/xL1VNS73fk87Fg0/79WVbLfAwsqGttPt5G7vb+vCinbJsIgFg8LrWDYtBRw5DOYAzM/YwG+f/gMj6qH1RvO5H2M71HNkGXUk7q/5bnRM/8l3CWaHyW+HBgMTlEET40RhA8pSq8gnb+LXkV94I3jwKUxEnzjysYPp1agvfAb58YXcMB8UbHEsM8zn7pBd3FV0cVEeD2ME3MGyJkigAR0dFsPriAl+EDABrEyY1bDaYiK3s+ut9X+N3yH+f7MvLFj2hQXLvrDgAP4F1mdNc9jYuVMAAAAASUVORK5CYII=;" vertex="1" parent="1">
          <mxGeometry x="126" y="675" width="38.97" height="40" as="geometry" />
        </mxCell>
        <mxCell id="d-93db96H7rgeAo_u0tM-142" value="" style="rounded=0;whiteSpace=wrap;html=1;fillColor=#d5e8d4;strokeColor=#FF3333;" vertex="1" parent="1">
          <mxGeometry x="484" y="750" width="130" height="78" as="geometry" />
        </mxCell>
        <mxCell id="d-93db96H7rgeAo_u0tM-143" value="" style="rounded=0;whiteSpace=wrap;html=1;fillColor=#d5e8d4;strokeColor=#FF3333;" vertex="1" parent="1">
          <mxGeometry x="204" y="750" width="130" height="79" as="geometry" />
        </mxCell>
        <mxCell id="d-93db96H7rgeAo_u0tM-144" value="&lt;font style=&quot;font-size: 14px;&quot; color=&quot;#ff3333&quot;&gt;Security Group&lt;/font&gt;" style="text;html=1;strokeColor=none;fillColor=none;align=center;verticalAlign=middle;whiteSpace=wrap;rounded=0;" vertex="1" parent="1">
          <mxGeometry x="204" y="750" width="130" height="21" as="geometry" />
        </mxCell>
        <mxCell id="d-93db96H7rgeAo_u0tM-145" value="&lt;font style=&quot;font-size: 14px;&quot; color=&quot;#ff3333&quot;&gt;Security Group&lt;/font&gt;" style="text;html=1;strokeColor=none;fillColor=none;align=center;verticalAlign=middle;whiteSpace=wrap;rounded=0;" vertex="1" parent="1">
          <mxGeometry x="484" y="750" width="130" height="23" as="geometry" />
        </mxCell>
        <mxCell id="d-93db96H7rgeAo_u0tM-146" value="" style="shape=image;verticalLabelPosition=bottom;labelBackgroundColor=default;verticalAlign=top;aspect=fixed;imageAspect=0;image=data:image/png,iVBORw0KGgoAAAANSUhEUgAAAEEAAABCCAYAAAAIY7vrAAAAAXNSR0IArs4c6QAAAARnQU1BAACxjwv8YQUAAAAJcEhZcwAADsMAAA7DAcdvqGQAAAnPSURBVHhe7VxZbFXXFd138POAwQZjO5gwphBK0wzORJMmVVOpSaomdBTqR38q9aPqIPWn/e1v1e8Oyk+lNA1t1aRN1LRqktJCIKkDxEAoYAzGBoz9PIKnvOEOXWvf8967zwMyzg/32UtsAW+fe+/b+56z9zr7nPOs9OS1UJY5lu6EIJAwnxHxciKOK1Z1He5mGyUQhhJ6WZE8xLLESkGPdkVQ73vQ4x5hIOJWo02NURoEvoS5j0TYjs+oWYUPrUhH4LqQ96fYNq6vRbsqo1w8luYEGvDRpHhXz0gwfEnsxg3ibn9QrNrVpgGawDh/8IL4/WfFqqoV966H0K4VGmMEDPPHr4l/+UM11NmwU9wt90Y6g3DmhuQvHpPg+qDYDS2SuucpGOsYLfS4zu8/J/61LryEVeJue0DspjuNdvGIvbpbQSgBvqDXdUQyh16S3If/glMmjM4glxGv75Rkj+yX3NHXJIDBuKyI0M/DgX2SO/a6ZN/9o3i9J4ymhGD6uuROvSnZgy9K/sQ/o54TR25GvEsfSPbwy5I9+lfxR68Yxa1haU6gMYGnbyq4npZgahxf0I90BiG7anYK+iEJJoejLhsHexN6SzAxIsGNtPasOYCjwqkx3GMAzxjFB+WdNuSQzEzq9cHEcDQ8l4Al9oTKwooTgJs7gdEZ3ZgBaLYwqofQaxcN2Q7/j+spOoapZ6bIlemLmQW64vCK67UNhhC6vILDa5aecUefofeAzH5GXHgvZqF5sHB2oAMQmPyhXglmBz1+IYxBBkSv55g4bXdL9aNfE2t1s2mAJhir3vn3JH/6ALLGGui/LnbbTmhMdsAXZubIdf5Dg6q767OSeuBLkc6AsSDX8ar4A+fFab1Lar74vbIUyOvyZw6Kd+aQWKsaJfXw8+Js+rTRxsAUXVOv97Dr15oPS1jQCXxz/tWzkn3/VQkGus2nBvpmswh4I+ooPsBeu0Es5PoCGMk1qKGNhRxvr20ry/MaOBEMwxtD2tZavU6cBqbQEjRwjg8gwE4rz7BbtsKeUufVDDM5iueM4hlVSMF3qMPnAE6w12+W6sf2ibv1fvNhCQs7Ad3H6zkumbd+g/R1UomIVQUygxsmBRyuHAri58S54xNS++yPpGr354y2hEU5we/vQjfbLe7me+GI0tu+3RFmpiTf26mEymnd/jGdMHRJqh98Tqqf/Pb83e02RTAxBCK1X7Idr4iDobSQExaVIhFWNCBxfsBxnRgBlbbcFEbwzYfwCk8AbI30zPGkvoz2RUHUBS2ew9eTCtB6ptRyGyGw20qPXQr99EVMRDrL+DuN56SHPICkJPXIV6Xmqe+IVddgWtz+CJB+OfniJE4ww3V37BG3eavRRuDM1xoc6gpJerLvvCTBWL9RGZARgi8wGCbbCS/jpcIWxod4TQMgf7FZCGEQ4Vyfc/GirAO5Wd2kFyYfCO0uyNSa9eU2Ukiw0jcuh2R2/vgg3nppuquMcaAL8/2/gSKPJLsnvPsHsda0KLV3t95ntAZgubbYLho0gwjdo9WhomxrB8vaiV5Sb1onG2S8ZI1lNlJgt0mRyKPk5PNJpYBUgXxhHhsryMqlQ3mClrGyM8q1CyKYubEmwBJWRcBUx+M2qsBum8UMH9NV70KH5M8eLMm5d8RjJRiEKfkIJchMw57T5TZCaLc1ONwd5ruOSO79vyCaIkMUQCYJkqRz9araxJOlEEHBRsq3auqMNoLdAGpAL2lZigWOadDKgsxA4L3ZVeRkAjayBIghXmYjBXZb6fHekFNl7frxMhqM98euinf+vxobkt4T+L3dux8Xp3Wb0UawakCbo3oC/0BiKNYT3n5BgqHexJMle/0WqX32h1K1+0mjLcGkyBWesOyx4gQAPMGsL6R7dHW3KAPnJRi9ElVrKwGIcSwVlNlIgd3W4MiF0Lt4VBdBuDhahK4LTODCazoHT3p24P4GTp2tuvLFF51ej4+OSWa4X9cWyJ6KAsfQU1xJSj5A/ECP/Wvny22k9J4Qp/2RPT9rWuVKXRUYFabUTvOWSJo2iY23HnoZBFVbnI2f1E0QugCTEJAc+X0nxb9yWr+307ZT3I27SjZSNuwQ6xe//FX4/N4vSGNDaZcJEV93qAieAIMXXHd44omH5jhgucHevLnN/HP5wnacFapgayrMzeieH+4SK0hImRrTgmtFgOsoU+NlNqrAbis91hMydeS7O3RHWhG86EYa0fWUVp4SzxN0i1+7coU4mAFLiy+Hfjfv4gs3QtgVsvjCxdn4PkiitPgCL2mFZd3GknDnCSsxFbH4ArhVuhumzEZKYyuGw/XLIbe8BOPoBdxMZRB6efEHuyV3/A1dnE02T9ivayuph78iVbN2zQpIFKggODW8wfHi7nysJDv2gCXu1gXL5MOKtv2S9cZtpDBOmFbLGitOAOCEMMoCmCvo4oQRjQ+sQs+qPSYWXEJAnIvbGEmWgbEv5F5BbtTgdLMIpEZu5GT6FPCHpPMEq75JUvc/jTi3y2gj6D4s5QmnD0j28O+1gFICegC3uMBblcETArFS1XMOhZAKRDFBq64gESQSBbFc8znLtBUArTbPslHtdNATxi6FQfqCeD2d5bQZcSLas3Rc63OJp8013LP0qDjrNxttBLtuTWHxZS6WVVHF/L2sseIEYHF7m9M9krrvaal+fF+iaHQwMSq5jlcw/3kdw2Hhvc2LcoJ35Yyu5ro8UJGgXe56Wq7/rPgD3R9zl/vbL4jX24mWTJeYdmuuMVA2SeFC5zyptKgHeP0cQFdgpHr9ze6xmGfMvgdYojnyo+cdnpl/VXpBJ5Aye/3ntDvxvEA5SEFz0akTpFU9+dKAeXms9qDbgqev604XnamyXlEz6+RLZipa9WLhpn6t2GtaVFcAXwR3z3CzCJkdT6/MOfnCEuDUuJIgu7EFz5hnuMI5dtMmDOdvibu93XxYwsJOMMdzgpErakwZoONZgvzJtyR/8ahS0eo93ygzgitX+XOHJQ/abSEXV3/mm+K0kbIaJ3hZ8THMcp1vqCP5hlLtz6muAJ6Byr73J10J45useeYH4DYxR+O6/P8O6Dkoa9VaTeM8mDIHcII6EXHhls5A3RRBIP5In2T//VvJfvB3rT3U7f2JOM0lIsI3lO34s2T/86Ku99Xt/am2K3RpzlO4VyrzJnjI5DCctA/d9fuqK4DHjGde+7l43R268bL+u78uWwFjkZR0nwc7LPS02i//WFKf+rzRLh4rKRJYcQKw4gRgaU7AsOY5RM7RnfWbEPmbNQPEYdk2puANZjt9mwh/2yAOpluedeRUdt2dCGzzzEmQbfiTAdx0xeyiD47BwizQqmvUyK/nLvkbDbcMkf8DoQh36bLuSoUAAAAASUVORK5CYII=;" vertex="1" parent="1">
          <mxGeometry x="213.06999999999996" y="771" width="49.24" height="50" as="geometry" />
        </mxCell>
        <mxCell id="d-93db96H7rgeAo_u0tM-147" value="" style="shape=image;verticalLabelPosition=bottom;labelBackgroundColor=default;verticalAlign=top;aspect=fixed;imageAspect=0;image=data:image/png,iVBORw0KGgoAAAANSUhEUgAAAEAAAABCCAYAAADnodDVAAAAAXNSR0IArs4c6QAAAARnQU1BAACxjwv8YQUAAAAJcEhZcwAADsMAAA7DAcdvqGQAABbeSURBVHhe5Vppc5zHce7dBRbH4iTAmwTvG6REipR4SDwkkdRhpRyXK6XYFcflcimVf6E/kO/5kFSOD0nkKOVK4lLJkiVSJHhLJEWK9yGe4AUSN7DA7gJ5nu6e930XAGXJuSpO893pY3qunpmengFTf/HXnePj4xJDKkoMQKYm8GX5pjBZHAmTgJq+USfJT9BNMErFSQwTZKlkBWW0Y0Dq1T86P14aN4mmVDSCifKRXLElxk6h4yIlAhuVNTxVxyLZJF1NE3J+mhjDlHlGAuK8UEQJZywrZIikx8ZExsfGhcsASMZIUwaeK4N5Y6RdJ+RpuQk6cVnPAw2Rl42x6qnOFLJJutQDHclZJ3mXh7IT2iW2svhpvusGXnVhADUDCP1ZooWTPBGKxDLHVHMmIQv5BKMty4WOVS/ARNkkXU39Z6isP0ypZCQgzgtVKYT6EnTaGsXPkSeJCo0n+l83ApNIzk8TY5giL64zzisr6/mWNe4rQIGZhjxBPmWRUFFZo46tTk0SMua7jEL7YpnjuMOAhGxqXU2dIOZn2BOThXKJvFikCkbilyYzqYCyJtMsS5Q3FU0Co9iq0KRcNqFuy3KZ46mMQDy1rqb6BVzWH0ff1giRD/j/agTfAqbwf9cIgQy8C8mGcom8WEQDTFD47UZQiomiskYdWxWalMtcpIR9SFzo+GlGmAobQhLJ+WliTEBOKuF5oUhq5/fPoE0GCiZQAoFCHCtYXjqTkqpsWrLZlKQ1sPC8CFIyWhyXkVHGBMZbHa7j9FRBi2W50PE3BUvpdEqqq1KSqSDv7WhWREixJJJHXwL/1GCJBmCHQU5QCAOwBpubKmTV8hqZOyurfAxGFzD4W52jcuFqXgaHtELNszpcP5KBcJESgQ0NOn6aEepq07JmWVZmz6hQGcGymaQ0AHrYXZKzlwsyNPLNRjADoIDxUyigULYyJSuW1sgfvj5NVi6rkUJhXJ70FGUUOMBwfkzOXszLZ0f75UkvzB/V9TQjELmMQvtimeOpjNDSlJHd22pl7Yoq5QnMqsbqbKzHrsZ4rt4uyvsfDcnXd9EXLeb1AMV1YjXbZsBPP8MGLkM+9Wn1WTMqYfVKaWmuwCyX5NjJAek43i+HTvSDHpSrN/IyPML4My7PJNqrEQo+wWUU2hfLTAHIeYLTeczqlRsFOX5mRE7wd3ZELlwrYEJEZrZk0MeMzGzNSH0dhhdXrGWVTbQbh8Kaw8+wQYKGEbjMH3YVpH+wJI0NFTKEWacB9h/ulw4Y4dL1vOQhK2vUsbWpSbks0Rn/YpkxiQ4DQHO1nb86KvuODsm+Y0MwQF66+0pYqQI8Jg+6xnS+daK1Tk2McRTqLA+FHccFCKSNH8HsXrw6LAeP9UltTUp2b2+QNfALQ8MlGYBRmK/bSdWtjDOKrU1NymXeGRXaF8sCinTs8sOVxokogV40t0KeX2vbYd+xvNzoxFIgJOp4mhF0BZheQkG/wMdAva4nRdl/qE8+OdgrrdgK33+tWTY9m1M/YfpeSItrEhjFUVsRCkYgTQBhHxIXOk4aIQWNHCZh7bIqeXlLrW7Rz44Py+FTwzJAJxwgqoOfJsY4ggHIJDqWwHGBGOhgHj0uykf7e+XDfb3SUJ+Rt3Y3y4Z1Oamp/s8YIeQTjLYsFzoORsjVpKWdg99cI/W5tBz8fFg6Tualb4BL0MEqSNTBTxNjAPQSDomOJTALJDtHRP5xd1F+c6BHPu3ohbPJyOs7G2V9e61uDdONC5Q16jhqK0Ll7SgRWFNWzG3NNtqXZ3XwDfD6R04OyyEMvhunT1m9gJgPdfDTRBnzAZ6nWZ4RFPTDb3ikJI+x/Pv6ilKCM+Q+JM/tQEdIj7ttU53MmZmNnI8nXo0mgVFc1tlIFvIJRltWEI5LaxPa2lAjTQ0ZOXY6j8EP69Zkn0qlcenrH1OnWCjYatCiWq/XQdIrzixY/mfvmhS9ZscVEmd3kEF5YGhMbt8dkfuPRqVYVJF6fa6GAvwOG799dxQzUdS2QhVRJVqdJoFRHLU1EVkGifDhl8IKSOO4q5BrtwpyGIN/hKDHYhnTL+Hof/RkTG52FrXPQR5X5wRQavubJxEJ8qynkBLLI2F6hisq0xoKM2pUb8/Ru34FQlIei7majA5+cJhHoVXEsqy7oiKt/mI6Ot7SXKlBSwXqq0CIzapovHx+XI/Wnv4S/EwJXj7ufGiLXBblWpozGu4+7uGyDzoeJlezXsYLOLoZkxG8HkOsyPntb34RR4IqJKF5gMTsJDBnwXiCy6CYpktFZyLbQFaXy8iKJdWyEpFk67QK/CplGiK5KhigEidHRYax2LjF7jAsjWAGKErnwyJmeVRu3i3YTIa2tH7rW2xowwqBpo5jBceGkDA/MkAkYy4JE5GIC8T4aUYIPMnp0ytlz45G2fRMHSIzC5wedhXl/sOCDpariFuH+5ErhKuitjaD4zWjUSeN9PXtAvb5kBz6YqgsxNaWQnuOfxcjpLa/AQOocwgKzCRNwkQkQgGTGQ5G4LLjNiBwJlldDgPZvqVBfvSDFjilknz+5aDcgn94iJnl7OqtEYYvYOmzEpbnFqvB/p7WWAEDVMii+VlZt7JGt8f7H/bJ8S+H9f5RCV3Wz2CoQF+kVVj7Uxkhkk3ARJm2Ze+8q2tWZa4AbDpIgmiSDNdR7F8egW1zq2TVslqZhsCob6CknWzGIHZta5Bli6rl1Nkh+fhAn1y8lpd7D2w5M56nEYoYXAmDYJlhLH+W74JTvf+oKL0IaxlsLZpfJf2QX7s5KiPQmz8nK9/bVa/nPwdfgiHp+NQQ7FkYKCEarMsm4MyCpe+8Wz5+VwA2HSRB5DJWVl2VloXzqmTLpnrZsbURV+Va1eAsD8B50Sk+v75OFi+oZgEESWnIMvDg+IGm4XLwD4FugoPkJWsGnOQCDHDV0mp5ZlWNrFhcrfk0yMVrI3DA48ivlFe25WCYSlk0r1JvgDTCIAzLFUj4tkZIvfT6CXeCYFQYJYqsEAkT2dtApaxdncMA62Vhm83Ozduj8uX5QTl3cUijsTmzsvLTt2fIlufqpBOzPoyTQVI260/guYv+eMIfVxL3O43BLcAojzJ2izKGuZ+fHZb3ftWjXn86nOkzq2tkcVsWBshqBHr3flGOIAw+d2VEuhEHEKYyQjxO46MVoBBlRomC6dLLp6S1tVJ2bGmUPTubdclzwAeO9MmJ0/1y4/YILkY8AgWzViHrVtXqzDNY4iWKtzjOFI8+ng48z7lVmhszuqLSOLq4lHth0Bt3RuUCBvMAt08+xvQgsDl3mY8tYzDmuJ4Qd+4XcN6X1CcswEpYAoPQcDQ4r8ba6zBwQqCjcXIFvHY8WgEKUWaUKGJFXNYvbW6SPbuadeY6jvbKF2cGNArjHratRGXRFfAnP5wh8+dm5e//uUsuXhnW87kKA+Xgc9i/GRiUjo/PbeoT4NS4x7lahuAPeEqsxBH61u5GDKqoK4AO1Lplxy4NxxPm2TU1suP5nB6tH+wfkE+PDKIu6lnfI5gwToTCxkceBFipOFHEJcpXoRc3N6jqB795LPsO9Ujnfe5LzDqF+hnWHzlgLndeXR89LsidzlG5cj0vZ84PyalzQ3L89IA+rJw6h+0DIzGPT2s06pCe/bbtrFdaaVQ3J46r6hauvweOD8rHHQMwqsjel3KyfjV8j49J+xYg0MCk/DocCwNWyhMarR6z1r4qJzOmZ+XwCcw8lnxfP+NvVwwF9FNGO87I75k1tfqSxCszIzS2x/tEsYgZx0piTFDEzPO4I3AZc1/Pm12pxyDjAq1Ss00n0Owy+9AN33Dk5JB0nBiS+Sj3/LoafTgNY3qaETJtS3/+buCjpTJhmXCpzpxZJZs3NmoY+sHHT+TuvVHTUYCeFkHimJ57w7o6PR7p3fmYOm92lbQgEmxAHvc1fQDPc+pSZyb8ywKcLO3La2Tzhpy8+HwdnB3v+hlEg6PylfuAqK0EIsHtw7iifXm1+hM6RA2nNdsUJ26H1LbdBzD+5OMiFCYoMUhZtrhW3v7BTPXSf/m3nXLjVp6Z+hm4EbzsnFlVOAVmykZEgddv5nW/cv9zyXK/cwYLWAHc5yzCp/aU+gTMPtqohqE5MYwTeIc4qadAN5wefEBoKzTuNPu+EKfCO3/crL7gr97rkctf40LgfQo4aYR0qTQcLwmA7WX/mUDG0ImhoZL+OBucMauDeqoFsOVoZQ3zetrVXYCv6JV//GWX/Hpfj1y4zKtrQcNibhEec7XVqA8G4tMaQ+WvLg7Lh/t75V8+6JYDx/r12IwaUuRtTZCl0+O4Iqc1luC2sksZs4Ke4eR2yMxf8vN3McfGJSyT3A7UZ2e5DZYtqZUROp47I7i4oGOqhiQqarOjx2B7nZ7hB4/2yemvBuUOts2N23m5gojwAo7Fc5eG5Sv86BDPnB+Ws6DPwUAXruQxc3l4/lHs44wsX8xYY0zzeMzG7cUrgQZkfLBzC7bd0io41Twc7LCGyrG6phHmGDGuqtgiCctMlPEZ/MKlQXnwcFQ2b2qQHduapBFnuOnhFxUNs2Pt8JjiEqZoECcBX5Vvd47I9RsY5HUO1n6X4f1v3BrRPJ79DK7oFGtqLOpU8Kbi9qwtbq8ZGPxLm3LyXHu1XMGyPwqHyO0WdE1d0wiz75m2xXCCyppFnDAMCDJ6Wi5RLuuVy3KyenlOHVg/ApQnPQUvgsSLmhOsl+U4OmswgGwlozt70dWYQRs15XhP8pRgpJlBvF8lG9flNJLkaXAXQQ9XDJc15tuaQjnWvXRBVnZtrVMD8FT55a974TBH7FRJ1O1fLANObXv1cFkg9E1GoJNqwqxv2tCAYKhFlsAxnjk3IIeP9cpp4EeYOWjpRyf4sx/Nkp0vNunq6ceN8B5WT3cPLzkl6cURymXNvzLx2OOJUAnHx+O2BbPJoGsmrtOMEjkQ/sXpvX/r1tsk62f0N72lUp7FKfHC+loYKYsthnjg2IAcPYXZhyGoqF2PxmJ9Uy6MadsrMEC8BMoy44IkYxkjujUrc7Ln5RZZv7Ze/yZw/vKgnDjVL6cQGfIyNAdHHk8Bxg4nEOyw9CJcjPggwvCYTkpDY7gRPSHg/WmISmAa5cHDArYC4gwslSUodx7bhAZggNQKJ7d1Y51GiW2INLlqvrqUl88w+EtY/qPhhLbBWN+joRhtWVwBNEA4i4LQsULAgKQR2OhszPLG9Q2yEtthOs7wi1eG5F8/6NKIjyvgJ2/P0qX8d//0ALF9XubCKFxB3Dp297eQmKcMly63Bo9IGpQPrjzD5+Fm+OarTYg4C/Levz/Rq3L7ihr585/M0G3E2yfvCGdwcjBc5m3Quhn6asnTjJDa+vKh+FRIDFCpBB/AKjKeqApemoaYNSOLQYzJ5WvYpwhWyP/4hzNl9cpa+Yf3H8mh4706QJRSj80XIBqBq4lbkOc9//TGx1ZemFh3Q32FbIYPeG1Xk4bIv/jVEz0SF+Cs50vTJVyPbyNsZmygR170Z34O2LBCJAv5BKMz8xf+DJFgKEC5E46Tsx4gSTHO7+3jMxfid8z8KIxAg/LY5OPn6hU5fQPghYcBDiNJgg4aZQfgHzj7HDS3AFfHDKwmPoK0Iwx+Do6Qq4axwWUcnxY6j+vM09tzRahhE4MP2LqsSQKFfAK4rbs63Ad8RyNMlAEr5QkHs7ANN7m9rdgitWoUvhjzGOTy5onC5UqD0Th0alwRNEArnBvvEIwl6A94XH6CK/X1myOJB48oUZ4oHlyMrXualMssww0Q+YD/WiMw9J0/t1odJp/NmhD/12NZ8zrMAXM1MMzmDOjyx+B0VcAH9PTyWbykf3K/dmNEb5GM9RMNWLOWKE/0XY2Q2rrzYNkpEGUSAuH4aUYgy1nkso/e5lTFVgL3eV2uQpcyL0N8UeJNjQbgL8QGNAKXNwfPcJm+JLwxsl6tlG2hHRqO5bh1rD/aoKuYnjOKrcualMlSW2AA/sEz5IXKrABJG1hjI5Zla1aGsXQfPBq1ENOy4ckrZMXSnDpDxgV37uECkjCCgtfDI4+YYjWeEqYS3vhpQP0pHesSWJY+gn+M5Zb64sxQFO4y4aqbg6s3L0OdOEp/23/X0T+OIi6z1gg6fXE4S6ICV4W2edXy2qutCIObdJ9SzjpIr1tTJ3/wxnTkNWoQw/Fp8ThRfZ0xenvONn7c/zw5iEfh3Pi3PMp5ItBJWh+Q8PNq2Caf0ba/UC9v7W6CIWr93s/ccX0p3roxJ2+83KiGCOWZRPVFSP9/gCmUG8GS0CgHxNB24YIamTunWvcvO1KLiw4vPHtfaVGPf+7CgNy7P6oDZWGvJiQmC7yLSJR1zPPK+qO06TEw4vb4EhcovjK/satRn8PCX6UrMVlzZlYiPK5SY1gdLG+4rC2goKEobpSYhBcIvwBoK4fBMwrkquDgDx3rlv0dTxAOj6hTU0BhpeLEZIF3EQlrJ8gMx/0hkLaV8RgG2NfRKx2I/Bgy70VMwIcT/f8JCWDRuI4YR+0D/E3QGNPRxHkSKjGRy+nFn1vfKG/snY7QNisdR3rks4PdelMMz1reiuK4bELmdQcRCSsSZIbL+qM0Hd+4Rpt8jT7yeb861z07GrASajWkjnUDcjqBQ1vmA0JnTMbsiFXN8EPd3AobNzTK63sw8/Do+w4+kf343X84Yktfi3jhBFYqThT97kawyJF/pj94rF+OftEv03DEvobtsKG9Vh9GDbyQFrFyzihmW7EPCJ2xPGZHbIAqXGmXw9u/urMFS69SPvqkS/Z91oVTwQdvvVf4HzECjk1GoAdwUzx8YkBfgvbubJRFbfETX1RIi1g5ZxRHtlJZ6EzgLWGGCrLwtvNxGsyZXS2d9/IIfUfVKa5dXafBDm+AdEIB/ruMwIhxYVtW1q6qldWIMmcgcqRf6IQDnoUrNP92qMBKQt3K89MkMJLa/OK+KBTWlIelkr6XgPgs9ewzDfKnP54va1bX6/8KuXOX/yHJgwEA44PTZ/rl0wO4sHQXWJHneJ1GRFipOFFkeiRMRMKKBJlhvgO8/nKztK/OUahZ1ONbwtzZ9tehS1eH5W9+0SVncYeYakwh/sjMa/upPYsnFEJm4DUbZBrXuH4MuhOBDvEozm09w4H515wHD0bk1h37E5iC9V5hciemMAKwFUESRJNkdmfgQBkPaDyhMcW49CNy5J/F+LTGt0YO3t4QtZaovIKy+PfCtn1YgW6BhMLEDjNkbUIIy73PlyGFxCB4PDGG7+4paKe81zEGWJ0xT1q5ODFZ4F1EQmVethJXaf5dktflpE7I53B4j3jM/zvkYyuv0/SUfWHbp/okNpXCNy0d40mEykk6AaxUgg+gdRoRYdONEkWmR8JEJKxIkBku60+QhbpDnrImmzgm++sDwBCSgJlCGDkoFfDTxHnL8yqcN6w5CT7AJJnrJhJFUbsuImFFgsxwWX+CLNQd8pQ1meaFugEaB3jNkxtwFHUm8JY4b3lehfMxnjRgwCQZsFJxoihq10UkrEiQGf7uRogSPwbJeAFD5B07+n01QtqbNYkXMETesaPfRyP4ddiBEi8wqYGAJvDfxQiTMODbGyEQKgF8FyM4G/KUN6GHwt4ogdpeYlIDTDU/5i07yIxXScQ7AWxZMR8gniWHSDdKTBZ4F5GIZAqWp6WDSOmgR/A85f0ypEAlJ1XbSxgi75ip5se8ZSdkjr0KkE4AW1bMB7A6Yz7WjRKTBd5FJFTGJJGnpZUnkA5lCZ6HX7QCTO6NErRC4wyRd8yUupphvGVr4gyJRKOBYDlFMR8gMkIiT6k4MZnm4+ciElYkyAxraeUJpEPZwIv8B4WQxq5C2ovvAAAAAElFTkSuQmCC;" vertex="1" parent="1">
          <mxGeometry x="498.6700000000001" y="776" width="43.64" height="45" as="geometry" />
        </mxCell>
        <mxCell id="d-93db96H7rgeAo_u0tM-148" value="&lt;font style=&quot;font-size: 14px;&quot;&gt;Web&lt;br&gt;Server&lt;/font&gt;" style="text;html=1;strokeColor=none;fillColor=none;align=center;verticalAlign=middle;whiteSpace=wrap;rounded=0;" vertex="1" parent="1">
          <mxGeometry x="274" y="771" width="50" height="50" as="geometry" />
        </mxCell>
        <mxCell id="d-93db96H7rgeAo_u0tM-149" value="&lt;font style=&quot;font-size: 14px;&quot;&gt;Internet&lt;br&gt;gateway&lt;/font&gt;" style="text;html=1;strokeColor=none;fillColor=none;align=center;verticalAlign=middle;whiteSpace=wrap;rounded=0;" vertex="1" parent="1">
          <mxGeometry x="378" y="695" width="60" height="30" as="geometry" />
        </mxCell>
        <mxCell id="d-93db96H7rgeAo_u0tM-150" value="" style="rounded=0;whiteSpace=wrap;html=1;fillColor=#d5e8d4;strokeColor=#82b366;" vertex="1" parent="1">
          <mxGeometry x="184" y="855" width="170" height="131" as="geometry" />
        </mxCell>
        <mxCell id="d-93db96H7rgeAo_u0tM-151" value="&lt;font color=&quot;#00cc00&quot; style=&quot;font-size: 14px;&quot;&gt;Private subnet:&lt;br&gt;10.0.1.0/24&lt;/font&gt;" style="text;html=1;strokeColor=none;fillColor=none;align=left;verticalAlign=middle;whiteSpace=wrap;rounded=0;" vertex="1" parent="1">
          <mxGeometry x="224" y="855" width="110" height="40" as="geometry" />
        </mxCell>
        <mxCell id="d-93db96H7rgeAo_u0tM-152" value="" style="shape=image;verticalLabelPosition=bottom;labelBackgroundColor=default;verticalAlign=top;aspect=fixed;imageAspect=0;image=data:image/png,iVBORw0KGgoAAAANSUhEUgAAACcAAAAtCAYAAAAtOHJTAAAAAXNSR0IArs4c6QAAAARnQU1BAACxjwv8YQUAAAAJcEhZcwAADsMAAA7DAcdvqGQAAAPcSURBVFhH7ZhfTFNXHMe/pZSWFtqCQlf5J8HhQNb4X8PqHJrpFo3GzPiymT0s+mT0xRmfNl9MfOPBZSbGRBPlQTQONWHRGc2SRedfrKISwSo6oVShUIqlQHv9neM1eymXew/HhEQ+Nyf0nHO599vf+f1+53dq+v1qvdLc1oSpiOnXCz8rDS1H1e7UIkP9OyWZFifKxyXOZDKBXTKQEq2WDAtWVqzG6jnfoiCnEGPJMdztuoXmtrN43v9Mvcs4k7acz7sQv3x9AFsXbcPQSAxXOi7ixourqPlkPvZ/U48N1d/BnuVQ7zaG+autX+y7H7qrdo0xz+PDj4u301ICjYET+Ku9Ga2hANrCDxDouo2R5AhWzVkLq9mKzkiQ940gbLmcrFxuFUVJ4VSgAf92/oPQYBcGE1EMDPcj2NeBcw9O42HPfSwv82Nu4Tz1P/UjLK7EXUb+5UHLy5vcWiPJhDrzP9HEABrvncDwaByf0zLbLNnqjD6ExZXllWNwOMotlEgj7D3hwRBZtBtOmwsuq1sd1YewOE+OF0klyZdRC4WuN6NDsGXaKDDs6qg+hMVlmi08p6XI5yZCURR6EV0mY68TFicnzWqjOwl7nUXwl9eh1D2b933eBXDZ3HgUbsXroVd8bDzYvY6sHJ5iIvE+PvZ38BIF0y0kU2O8nw7dlmNClpQsR3l+BSy0pMHedgS67yCWiPG+Vgv2dvCIjo++IZEO1JZ9iarCGphNZvXp6dFtuWqecLfx5HqZdgFRmAV3rdiDe90tOH77CBJj40e6IZ9LpVLoj0d4shVtPbFuit64+kRthAMiHRX5n2KL73usqVyHGfYCdVQcaeLWV23CTv8eLCv144eFP2EXfa4sqFJnxZAirthVykU9ft2GQ9fqcfj6QeTZZ8BHW5Y5Q9vptZAizp2dj1xrLrqi/+FJXztPL3HyKzs5v2kSr5Ai7nnkKfqpEllaUgv/7DpsrN6MIlcxr05StMWJIkUc21+bWk/SlpaJvXX7sHbuepx/eIYnWj3b23hIEcc2d1a3naa6rpOseKn9TyrRm3jamQxSxDFYlRse6qGljCAcCyE6PKDOiCNN3IdAqjgWoU9oz301QSGgF6nieknUH62NfP+VgSFxLBpnOgp40k3XPLleZNM5IY/yXrp51oqcJXBY9B0VdVclVZ4a7KjdjcqZn9HBRbs014JVw4V0MDpy/Tc0tBxLezB6j25x2RY7ZjmL4bS61JHJ8TL6gnyzh5fw42Ho5wj+G4is+pw0sfyohSGfYw9j31RKm0AY4+PJc7KZFidKxjvXTE3JNr2sokyLEwN4Cy4NGYFNvr9bAAAAAElFTkSuQmCC;" vertex="1" parent="1">
          <mxGeometry x="184" y="855" width="34.67" height="40" as="geometry" />
        </mxCell>
        <mxCell id="d-93db96H7rgeAo_u0tM-153" value="" style="rounded=0;whiteSpace=wrap;html=1;fillColor=#d5e8d4;strokeColor=#FF3333;" vertex="1" parent="1">
          <mxGeometry x="204" y="900" width="130" height="78" as="geometry" />
        </mxCell>
        <mxCell id="d-93db96H7rgeAo_u0tM-154" value="&lt;font style=&quot;font-size: 14px;&quot; color=&quot;#ff3333&quot;&gt;Security Group&lt;/font&gt;" style="text;html=1;strokeColor=none;fillColor=none;align=center;verticalAlign=middle;whiteSpace=wrap;rounded=0;" vertex="1" parent="1">
          <mxGeometry x="204" y="900" width="130" height="23" as="geometry" />
        </mxCell>
        <mxCell id="d-93db96H7rgeAo_u0tM-158" style="rounded=0;orthogonalLoop=1;jettySize=auto;html=1;exitX=0.5;exitY=0;exitDx=0;exitDy=0;entryX=0.5;entryY=1;entryDx=0;entryDy=0;opacity=60;" edge="1" parent="1" source="d-93db96H7rgeAo_u0tM-155" target="d-93db96H7rgeAo_u0tM-146">
          <mxGeometry relative="1" as="geometry" />
        </mxCell>
        <mxCell id="d-93db96H7rgeAo_u0tM-160" style="rounded=0;orthogonalLoop=1;jettySize=auto;html=1;exitX=1;exitY=0.5;exitDx=0;exitDy=0;entryX=0;entryY=0.5;entryDx=0;entryDy=0;opacity=50;" edge="1" parent="1" source="d-93db96H7rgeAo_u0tM-155" target="d-93db96H7rgeAo_u0tM-147">
          <mxGeometry relative="1" as="geometry" />
        </mxCell>
        <mxCell id="d-93db96H7rgeAo_u0tM-155" value="" style="shape=image;verticalLabelPosition=bottom;labelBackgroundColor=default;verticalAlign=top;aspect=fixed;imageAspect=0;image=data:image/png,iVBORw0KGgoAAAANSUhEUgAAAEAAAABCCAYAAADnodDVAAAAAXNSR0IArs4c6QAAAARnQU1BAACxjwv8YQUAAAAJcEhZcwAADsMAAA7DAcdvqGQAABbeSURBVHhe5Vppc5zHce7dBRbH4iTAmwTvG6REipR4SDwkkdRhpRyXK6XYFcflcimVf6E/kO/5kFSOD0nkKOVK4lLJkiVSJHhLJEWK9yGe4AUSN7DA7gJ5nu6e930XAGXJuSpO893pY3qunpmengFTf/HXnePj4xJDKkoMQKYm8GX5pjBZHAmTgJq+USfJT9BNMErFSQwTZKlkBWW0Y0Dq1T86P14aN4mmVDSCifKRXLElxk6h4yIlAhuVNTxVxyLZJF1NE3J+mhjDlHlGAuK8UEQJZywrZIikx8ZExsfGhcsASMZIUwaeK4N5Y6RdJ+RpuQk6cVnPAw2Rl42x6qnOFLJJutQDHclZJ3mXh7IT2iW2svhpvusGXnVhADUDCP1ZooWTPBGKxDLHVHMmIQv5BKMty4WOVS/ARNkkXU39Z6isP0ypZCQgzgtVKYT6EnTaGsXPkSeJCo0n+l83ApNIzk8TY5giL64zzisr6/mWNe4rQIGZhjxBPmWRUFFZo46tTk0SMua7jEL7YpnjuMOAhGxqXU2dIOZn2BOThXKJvFikCkbilyYzqYCyJtMsS5Q3FU0Co9iq0KRcNqFuy3KZ46mMQDy1rqb6BVzWH0ff1giRD/j/agTfAqbwf9cIgQy8C8mGcom8WEQDTFD47UZQiomiskYdWxWalMtcpIR9SFzo+GlGmAobQhLJ+WliTEBOKuF5oUhq5/fPoE0GCiZQAoFCHCtYXjqTkqpsWrLZlKQ1sPC8CFIyWhyXkVHGBMZbHa7j9FRBi2W50PE3BUvpdEqqq1KSqSDv7WhWREixJJJHXwL/1GCJBmCHQU5QCAOwBpubKmTV8hqZOyurfAxGFzD4W52jcuFqXgaHtELNszpcP5KBcJESgQ0NOn6aEepq07JmWVZmz6hQGcGymaQ0AHrYXZKzlwsyNPLNRjADoIDxUyigULYyJSuW1sgfvj5NVi6rkUJhXJ70FGUUOMBwfkzOXszLZ0f75UkvzB/V9TQjELmMQvtimeOpjNDSlJHd22pl7Yoq5QnMqsbqbKzHrsZ4rt4uyvsfDcnXd9EXLeb1AMV1YjXbZsBPP8MGLkM+9Wn1WTMqYfVKaWmuwCyX5NjJAek43i+HTvSDHpSrN/IyPML4My7PJNqrEQo+wWUU2hfLTAHIeYLTeczqlRsFOX5mRE7wd3ZELlwrYEJEZrZk0MeMzGzNSH0dhhdXrGWVTbQbh8Kaw8+wQYKGEbjMH3YVpH+wJI0NFTKEWacB9h/ulw4Y4dL1vOQhK2vUsbWpSbks0Rn/YpkxiQ4DQHO1nb86KvuODsm+Y0MwQF66+0pYqQI8Jg+6xnS+daK1Tk2McRTqLA+FHccFCKSNH8HsXrw6LAeP9UltTUp2b2+QNfALQ8MlGYBRmK/bSdWtjDOKrU1NymXeGRXaF8sCinTs8sOVxokogV40t0KeX2vbYd+xvNzoxFIgJOp4mhF0BZheQkG/wMdAva4nRdl/qE8+OdgrrdgK33+tWTY9m1M/YfpeSItrEhjFUVsRCkYgTQBhHxIXOk4aIQWNHCZh7bIqeXlLrW7Rz44Py+FTwzJAJxwgqoOfJsY4ggHIJDqWwHGBGOhgHj0uykf7e+XDfb3SUJ+Rt3Y3y4Z1Oamp/s8YIeQTjLYsFzoORsjVpKWdg99cI/W5tBz8fFg6Tualb4BL0MEqSNTBTxNjAPQSDomOJTALJDtHRP5xd1F+c6BHPu3ohbPJyOs7G2V9e61uDdONC5Q16jhqK0Ll7SgRWFNWzG3NNtqXZ3XwDfD6R04OyyEMvhunT1m9gJgPdfDTRBnzAZ6nWZ4RFPTDb3ikJI+x/Pv6ilKCM+Q+JM/tQEdIj7ttU53MmZmNnI8nXo0mgVFc1tlIFvIJRltWEI5LaxPa2lAjTQ0ZOXY6j8EP69Zkn0qlcenrH1OnWCjYatCiWq/XQdIrzixY/mfvmhS9ZscVEmd3kEF5YGhMbt8dkfuPRqVYVJF6fa6GAvwOG799dxQzUdS2QhVRJVqdJoFRHLU1EVkGifDhl8IKSOO4q5BrtwpyGIN/hKDHYhnTL+Hof/RkTG52FrXPQR5X5wRQavubJxEJ8qynkBLLI2F6hisq0xoKM2pUb8/Ru34FQlIei7majA5+cJhHoVXEsqy7oiKt/mI6Ot7SXKlBSwXqq0CIzapovHx+XI/Wnv4S/EwJXj7ufGiLXBblWpozGu4+7uGyDzoeJlezXsYLOLoZkxG8HkOsyPntb34RR4IqJKF5gMTsJDBnwXiCy6CYpktFZyLbQFaXy8iKJdWyEpFk67QK/CplGiK5KhigEidHRYax2LjF7jAsjWAGKErnwyJmeVRu3i3YTIa2tH7rW2xowwqBpo5jBceGkDA/MkAkYy4JE5GIC8T4aUYIPMnp0ytlz45G2fRMHSIzC5wedhXl/sOCDpariFuH+5ErhKuitjaD4zWjUSeN9PXtAvb5kBz6YqgsxNaWQnuOfxcjpLa/AQOocwgKzCRNwkQkQgGTGQ5G4LLjNiBwJlldDgPZvqVBfvSDFjilknz+5aDcgn94iJnl7OqtEYYvYOmzEpbnFqvB/p7WWAEDVMii+VlZt7JGt8f7H/bJ8S+H9f5RCV3Wz2CoQF+kVVj7Uxkhkk3ARJm2Ze+8q2tWZa4AbDpIgmiSDNdR7F8egW1zq2TVslqZhsCob6CknWzGIHZta5Bli6rl1Nkh+fhAn1y8lpd7D2w5M56nEYoYXAmDYJlhLH+W74JTvf+oKL0IaxlsLZpfJf2QX7s5KiPQmz8nK9/bVa/nPwdfgiHp+NQQ7FkYKCEarMsm4MyCpe+8Wz5+VwA2HSRB5DJWVl2VloXzqmTLpnrZsbURV+Va1eAsD8B50Sk+v75OFi+oZgEESWnIMvDg+IGm4XLwD4FugoPkJWsGnOQCDHDV0mp5ZlWNrFhcrfk0yMVrI3DA48ivlFe25WCYSlk0r1JvgDTCIAzLFUj4tkZIvfT6CXeCYFQYJYqsEAkT2dtApaxdncMA62Vhm83Ozduj8uX5QTl3cUijsTmzsvLTt2fIlufqpBOzPoyTQVI260/guYv+eMIfVxL3O43BLcAojzJ2izKGuZ+fHZb3ftWjXn86nOkzq2tkcVsWBshqBHr3flGOIAw+d2VEuhEHEKYyQjxO46MVoBBlRomC6dLLp6S1tVJ2bGmUPTubdclzwAeO9MmJ0/1y4/YILkY8AgWzViHrVtXqzDNY4iWKtzjOFI8+ng48z7lVmhszuqLSOLq4lHth0Bt3RuUCBvMAt08+xvQgsDl3mY8tYzDmuJ4Qd+4XcN6X1CcswEpYAoPQcDQ4r8ba6zBwQqCjcXIFvHY8WgEKUWaUKGJFXNYvbW6SPbuadeY6jvbKF2cGNArjHratRGXRFfAnP5wh8+dm5e//uUsuXhnW87kKA+Xgc9i/GRiUjo/PbeoT4NS4x7lahuAPeEqsxBH61u5GDKqoK4AO1Lplxy4NxxPm2TU1suP5nB6tH+wfkE+PDKIu6lnfI5gwToTCxkceBFipOFHEJcpXoRc3N6jqB795LPsO9Ujnfe5LzDqF+hnWHzlgLndeXR89LsidzlG5cj0vZ84PyalzQ3L89IA+rJw6h+0DIzGPT2s06pCe/bbtrFdaaVQ3J46r6hauvweOD8rHHQMwqsjel3KyfjV8j49J+xYg0MCk/DocCwNWyhMarR6z1r4qJzOmZ+XwCcw8lnxfP+NvVwwF9FNGO87I75k1tfqSxCszIzS2x/tEsYgZx0piTFDEzPO4I3AZc1/Pm12pxyDjAq1Ss00n0Owy+9AN33Dk5JB0nBiS+Sj3/LoafTgNY3qaETJtS3/+buCjpTJhmXCpzpxZJZs3NmoY+sHHT+TuvVHTUYCeFkHimJ57w7o6PR7p3fmYOm92lbQgEmxAHvc1fQDPc+pSZyb8ywKcLO3La2Tzhpy8+HwdnB3v+hlEg6PylfuAqK0EIsHtw7iifXm1+hM6RA2nNdsUJ26H1LbdBzD+5OMiFCYoMUhZtrhW3v7BTPXSf/m3nXLjVp6Z+hm4EbzsnFlVOAVmykZEgddv5nW/cv9zyXK/cwYLWAHc5yzCp/aU+gTMPtqohqE5MYwTeIc4qadAN5wefEBoKzTuNPu+EKfCO3/crL7gr97rkctf40LgfQo4aYR0qTQcLwmA7WX/mUDG0ImhoZL+OBucMauDeqoFsOVoZQ3zetrVXYCv6JV//GWX/Hpfj1y4zKtrQcNibhEec7XVqA8G4tMaQ+WvLg7Lh/t75V8+6JYDx/r12IwaUuRtTZCl0+O4Iqc1luC2sksZs4Ke4eR2yMxf8vN3McfGJSyT3A7UZ2e5DZYtqZUROp47I7i4oGOqhiQqarOjx2B7nZ7hB4/2yemvBuUOts2N23m5gojwAo7Fc5eG5Sv86BDPnB+Ws6DPwUAXruQxc3l4/lHs44wsX8xYY0zzeMzG7cUrgQZkfLBzC7bd0io41Twc7LCGyrG6phHmGDGuqtgiCctMlPEZ/MKlQXnwcFQ2b2qQHduapBFnuOnhFxUNs2Pt8JjiEqZoECcBX5Vvd47I9RsY5HUO1n6X4f1v3BrRPJ79DK7oFGtqLOpU8Kbi9qwtbq8ZGPxLm3LyXHu1XMGyPwqHyO0WdE1d0wiz75m2xXCCyppFnDAMCDJ6Wi5RLuuVy3KyenlOHVg/ApQnPQUvgsSLmhOsl+U4OmswgGwlozt70dWYQRs15XhP8pRgpJlBvF8lG9flNJLkaXAXQQ9XDJc15tuaQjnWvXRBVnZtrVMD8FT55a974TBH7FRJ1O1fLANObXv1cFkg9E1GoJNqwqxv2tCAYKhFlsAxnjk3IIeP9cpp4EeYOWjpRyf4sx/Nkp0vNunq6ceN8B5WT3cPLzkl6cURymXNvzLx2OOJUAnHx+O2BbPJoGsmrtOMEjkQ/sXpvX/r1tsk62f0N72lUp7FKfHC+loYKYsthnjg2IAcPYXZhyGoqF2PxmJ9Uy6MadsrMEC8BMoy44IkYxkjujUrc7Ln5RZZv7Ze/yZw/vKgnDjVL6cQGfIyNAdHHk8Bxg4nEOyw9CJcjPggwvCYTkpDY7gRPSHg/WmISmAa5cHDArYC4gwslSUodx7bhAZggNQKJ7d1Y51GiW2INLlqvrqUl88w+EtY/qPhhLbBWN+joRhtWVwBNEA4i4LQsULAgKQR2OhszPLG9Q2yEtthOs7wi1eG5F8/6NKIjyvgJ2/P0qX8d//0ALF9XubCKFxB3Dp297eQmKcMly63Bo9IGpQPrjzD5+Fm+OarTYg4C/Levz/Rq3L7ihr585/M0G3E2yfvCGdwcjBc5m3Quhn6asnTjJDa+vKh+FRIDFCpBB/AKjKeqApemoaYNSOLQYzJ5WvYpwhWyP/4hzNl9cpa+Yf3H8mh4706QJRSj80XIBqBq4lbkOc9//TGx1ZemFh3Q32FbIYPeG1Xk4bIv/jVEz0SF+Cs50vTJVyPbyNsZmygR170Z34O2LBCJAv5BKMz8xf+DJFgKEC5E46Tsx4gSTHO7+3jMxfid8z8KIxAg/LY5OPn6hU5fQPghYcBDiNJgg4aZQfgHzj7HDS3AFfHDKwmPoK0Iwx+Do6Qq4axwWUcnxY6j+vM09tzRahhE4MP2LqsSQKFfAK4rbs63Ad8RyNMlAEr5QkHs7ANN7m9rdgitWoUvhjzGOTy5onC5UqD0Th0alwRNEArnBvvEIwl6A94XH6CK/X1myOJB48oUZ4oHlyMrXualMssww0Q+YD/WiMw9J0/t1odJp/NmhD/12NZ8zrMAXM1MMzmDOjyx+B0VcAH9PTyWbykf3K/dmNEb5GM9RMNWLOWKE/0XY2Q2rrzYNkpEGUSAuH4aUYgy1nkso/e5lTFVgL3eV2uQpcyL0N8UeJNjQbgL8QGNAKXNwfPcJm+JLwxsl6tlG2hHRqO5bh1rD/aoKuYnjOKrcualMlSW2AA/sEz5IXKrABJG1hjI5Zla1aGsXQfPBq1ENOy4ckrZMXSnDpDxgV37uECkjCCgtfDI4+YYjWeEqYS3vhpQP0pHesSWJY+gn+M5Zb64sxQFO4y4aqbg6s3L0OdOEp/23/X0T+OIi6z1gg6fXE4S6ICV4W2edXy2qutCIObdJ9SzjpIr1tTJ3/wxnTkNWoQw/Fp8ThRfZ0xenvONn7c/zw5iEfh3Pi3PMp5ItBJWh+Q8PNq2Caf0ba/UC9v7W6CIWr93s/ccX0p3roxJ2+83KiGCOWZRPVFSP9/gCmUG8GS0CgHxNB24YIamTunWvcvO1KLiw4vPHtfaVGPf+7CgNy7P6oDZWGvJiQmC7yLSJR1zPPK+qO06TEw4vb4EhcovjK/satRn8PCX6UrMVlzZlYiPK5SY1gdLG+4rC2goKEobpSYhBcIvwBoK4fBMwrkquDgDx3rlv0dTxAOj6hTU0BhpeLEZIF3EQlrJ8gMx/0hkLaV8RgG2NfRKx2I/Bgy70VMwIcT/f8JCWDRuI4YR+0D/E3QGNPRxHkSKjGRy+nFn1vfKG/snY7QNisdR3rks4PdelMMz1reiuK4bELmdQcRCSsSZIbL+qM0Hd+4Rpt8jT7yeb861z07GrASajWkjnUDcjqBQ1vmA0JnTMbsiFXN8EPd3AobNzTK63sw8/Do+w4+kf343X84Yktfi3jhBFYqThT97kawyJF/pj94rF+OftEv03DEvobtsKG9Vh9GDbyQFrFyzihmW7EPCJ2xPGZHbIAqXGmXw9u/urMFS69SPvqkS/Z91oVTwQdvvVf4HzECjk1GoAdwUzx8YkBfgvbubJRFbfETX1RIi1g5ZxRHtlJZ6EzgLWGGCrLwtvNxGsyZXS2d9/IIfUfVKa5dXafBDm+AdEIB/ruMwIhxYVtW1q6qldWIMmcgcqRf6IQDnoUrNP92qMBKQt3K89MkMJLa/OK+KBTWlIelkr6XgPgs9ewzDfKnP54va1bX6/8KuXOX/yHJgwEA44PTZ/rl0wO4sHQXWJHneJ1GRFipOFFkeiRMRMKKBJlhvgO8/nKztK/OUahZ1ONbwtzZ9tehS1eH5W9+0SVncYeYakwh/sjMa/upPYsnFEJm4DUbZBrXuH4MuhOBDvEozm09w4H515wHD0bk1h37E5iC9V5hciemMAKwFUESRJNkdmfgQBkPaDyhMcW49CNy5J/F+LTGt0YO3t4QtZaovIKy+PfCtn1YgW6BhMLEDjNkbUIIy73PlyGFxCB4PDGG7+4paKe81zEGWJ0xT1q5ODFZ4F1EQmVethJXaf5dktflpE7I53B4j3jM/zvkYyuv0/SUfWHbp/okNpXCNy0d40mEykk6AaxUgg+gdRoRYdONEkWmR8JEJKxIkBku60+QhbpDnrImmzgm++sDwBCSgJlCGDkoFfDTxHnL8yqcN6w5CT7AJJnrJhJFUbsuImFFgsxwWX+CLNQd8pQ1meaFugEaB3jNkxtwFHUm8JY4b3lehfMxnjRgwCQZsFJxoihq10UkrEiQGf7uRogSPwbJeAFD5B07+n01QtqbNYkXMETesaPfRyP4ddiBEi8wqYGAJvDfxQiTMODbGyEQKgF8FyM4G/KUN6GHwt4ogdpeYlIDTDU/5i07yIxXScQ7AWxZMR8gniWHSDdKTBZ4F5GIZAqWp6WDSOmgR/A85f0ypEAlJ1XbSxgi75ip5se8ZSdkjr0KkE4AW1bMB7A6Yz7WjRKTBd5FJFTGJJGnpZUnkA5lCZ6HX7QCTO6NErRC4wyRd8yUupphvGVr4gyJRKOBYDlFMR8gMkIiT6k4MZnm4+ciElYkyAxraeUJpEPZwIv8B4WQxq5C2ovvAAAAAElFTkSuQmCC;" vertex="1" parent="1">
          <mxGeometry x="218.67000000000007" y="926" width="43.64" height="45" as="geometry" />
        </mxCell>
        <mxCell id="d-93db96H7rgeAo_u0tM-156" value="&lt;font style=&quot;font-size: 13px;&quot;&gt;RDS DB&lt;br&gt;Master&lt;br&gt;&lt;/font&gt;" style="text;html=1;strokeColor=none;fillColor=none;align=center;verticalAlign=middle;whiteSpace=wrap;rounded=0;" vertex="1" parent="1">
          <mxGeometry x="265" y="926" width="60" height="45" as="geometry" />
        </mxCell>
        <mxCell id="d-93db96H7rgeAo_u0tM-157" value="&lt;font style=&quot;font-size: 13px;&quot;&gt;&lt;span style=&quot;&quot;&gt;RDS DB&lt;/span&gt;&lt;br&gt;&lt;font style=&quot;font-size: 13px;&quot;&gt;Secondary&lt;/font&gt;&lt;br&gt;&lt;/font&gt;" style="text;html=1;strokeColor=none;fillColor=none;align=center;verticalAlign=middle;whiteSpace=wrap;rounded=0;" vertex="1" parent="1">
          <mxGeometry x="546" y="776" width="64" height="45" as="geometry" />
        </mxCell>
      </root>
    </mxGraphModel>
  </diagram>
</mxfile>
